<?xml version="1.0" encoding="UTF-8" standalone="no"?>
<!-- Created with Inkscape (http://www.inkscape.org/) -->

<svg
   xmlns:dc="http://purl.org/dc/elements/1.1/"
   xmlns:cc="http://creativecommons.org/ns#"
   xmlns:rdf="http://www.w3.org/1999/02/22-rdf-syntax-ns#"
   xmlns:svg="http://www.w3.org/2000/svg"
   xmlns="http://www.w3.org/2000/svg"
   xmlns:xlink="http://www.w3.org/1999/xlink"
   xmlns:sodipodi="http://sodipodi.sourceforge.net/DTD/sodipodi-0.dtd"
   xmlns:inkscape="http://www.inkscape.org/namespaces/inkscape"
   width="740.09576"
   height="740.09576"
   id="svg2"
   sodipodi:version="0.32"
   inkscape:version="0.47+devel r9322"
   sodipodi:docname="tacho.svg"
   inkscape:output_extension="org.inkscape.output.svg.inkscape"
   version="1.0"
   inkscape:export-filename="C:\joanna\Gfx\drawings_vector\admin\thumbs\DigitaLink_Tachometer_1.png"
   inkscape:export-xdpi="24.321177"
   inkscape:export-ydpi="24.321177">
  <defs
     id="defs4">
    <linearGradient
       id="linearGradient3202">
      <stop
         style="stop-color:#f20000;stop-opacity:1;"
         offset="0"
         id="stop3204" />
      <stop
         id="stop3210"
         offset="0.34999999"
         style="stop-color:#f0690c;stop-opacity:1;" />
      <stop
         style="stop-color:#f8a21a;stop-opacity:1;"
         offset="0.67500001"
         id="stop3212" />
      <stop
         style="stop-color:#f7ff5d;stop-opacity:1;"
         offset="1"
         id="stop3206" />
    </linearGradient>
    <filter
       inkscape:collect="always"
       x="-0.15392917"
       width="1.3078583"
       y="-0.21550095"
       height="1.4310019"
       id="filter4627">
      <feGaussianBlur
         inkscape:collect="always"
         stdDeviation="11.862174"
         id="feGaussianBlur4629" />
    </filter>
    <filter
       inkscape:collect="always"
       x="-0.15392917"
       width="1.3078583"
       y="-0.21550095"
       height="1.4310019"
       id="filter4631">
      <feGaussianBlur
         inkscape:collect="always"
         stdDeviation="11.862174"
         id="feGaussianBlur4633" />
    </filter>
    <filter
       inkscape:collect="always"
       x="-0.084515408"
       width="1.1690308"
       y="-0.11832162"
       height="1.2366432"
       id="filter4821">
      <feGaussianBlur
         inkscape:collect="always"
         stdDeviation="6.5129718"
         id="feGaussianBlur4823" />
    </filter>
    <filter
       inkscape:collect="always"
       x="-0.13009128"
       width="1.2601826"
       y="-0.12069485"
       height="1.2413898"
       id="filter5276">
      <feGaussianBlur
         inkscape:collect="always"
         stdDeviation="3.2417708"
         id="feGaussianBlur5278" />
    </filter>
    <linearGradient
       inkscape:collect="always"
       xlink:href="#linearGradient3202"
       id="linearGradient5357"
       gradientUnits="userSpaceOnUse"
       x1="373.64154"
       y1="344.84314"
       x2="190.15334"
       y2="313.72528" />
    <linearGradient
       inkscape:collect="always"
       xlink:href="#linearGradient3202"
       id="linearGradient2487"
       gradientUnits="userSpaceOnUse"
       x1="373.64154"
       y1="344.84314"
       x2="190.15334"
       y2="313.72528" />
    <linearGradient
       inkscape:collect="always"
       xlink:href="#linearGradient3202"
       id="linearGradient2499"
       gradientUnits="userSpaceOnUse"
       x1="373.64154"
       y1="344.84314"
       x2="190.15334"
       y2="313.72528" />
  </defs>
  <sodipodi:namedview
     id="base"
     pagecolor="#ffffff"
     bordercolor="#666666"
     borderopacity="1.0"
     gridtolerance="10000"
     guidetolerance="10"
     objecttolerance="10"
     inkscape:pageopacity="0.0"
     inkscape:pageshadow="2"
     inkscape:zoom="0.67277218"
     inkscape:cx="372.04724"
     inkscape:cy="507.28604"
     inkscape:document-units="px"
     inkscape:current-layer="layer2"
     showguides="true"
     inkscape:guide-bbox="true"
     inkscape:window-width="1280"
     inkscape:window-height="919"
     inkscape:window-x="0"
     inkscape:window-y="30"
     showgrid="false"
     inkscape:window-maximized="0" />
  <metadata
     id="metadata7">
    <rdf:RDF>
      <cc:Work
         rdf:about="">
        <dc:format>image/svg+xml</dc:format>
        <dc:type
           rdf:resource="http://purl.org/dc/dcmitype/StillImage" />
        <dc:title></dc:title>
      </cc:Work>
    </rdf:RDF>
  </metadata>
  <g
     inkscape:label="Layer 1"
     inkscape:groupmode="layer"
     id="layer1"
     transform="translate(-2.484192,-3.3434888)" />
  <g
     inkscape:groupmode="layer"
     id="layer2"
     inkscape:label="Needle"
     transform="translate(-2.484192,-3.3434888)">
    <g
       id="g2606"
       inkscape:export-filename="D:\ed\projects\optimizer2010\projects\optimizer\res\16.png"
       inkscape:export-xdpi="1.9456942"
       inkscape:export-ydpi="1.9456942">
      <path
         transform="matrix(0.79431,0,0,1.2221079,1.5316216,134.97131)"
         sodipodi:open="true"
         sodipodi:end="8.7546931"
         sodipodi:start="2.479422"
         d="m 232.99884,335.39605 c -4.0138,-3.4937 -3.09385,-8.53386 2.05476,-11.25751 5.14861,-2.72365 12.57621,-2.0994 16.59001,1.3943 4.01381,3.4937 3.09386,8.53386 -2.05475,11.25751 -5.11983,2.70842 -12.50046,2.10823 -16.53221,-1.34439"
         sodipodi:ry="8.0210857"
         sodipodi:rx="11.820547"
         sodipodi:cy="330.46445"
         sodipodi:cx="242.32123"
         id="path3851"
         style="fill:#000000;fill-opacity:1;stroke:none;stroke-width:2.49399996;stroke-linecap:square;stroke-miterlimit:4;stroke-dasharray:none;stroke-opacity:1"
         sodipodi:type="arc" />
      <g
         transform="matrix(3.5552832,0,0,3.5552832,-677.12292,-585.57879)"
         id="g3273">
        <g
           id="g3238">
          <g
             transform="translate(1.0008071,0)"
             id="g3230">
            <g
               id="g3196">
              <path
                 d="m 398.32121,269.73102 c 0,57.48397 -46.59996,104.08394 -104.08394,104.08394 -57.48397,0 -104.08393,-46.59997 -104.08393,-104.08394 0,-57.48397 46.59996,-104.08394 104.08393,-104.08394 57.48398,0 104.08394,46.59997 104.08394,104.08394 z"
                 sodipodi:ry="104.08394"
                 sodipodi:rx="104.08394"
                 sodipodi:cy="269.73102"
                 sodipodi:cx="294.23727"
                 id="path2221"
                 style="fill:#aeaeae;fill-opacity:1"
                 sodipodi:type="arc" />
              <path
                 transform="matrix(0.9903846,0,0,0.9903846,2.8292145,2.5935778)"
                 d="m 398.32121,269.73102 c 0,57.48397 -46.59996,104.08394 -104.08394,104.08394 -57.48397,0 -104.08393,-46.59997 -104.08393,-104.08394 0,-57.48397 46.59996,-104.08394 104.08393,-104.08394 57.48398,0 104.08394,46.59997 104.08394,104.08394 z"
                 sodipodi:ry="104.08394"
                 sodipodi:rx="104.08394"
                 sodipodi:cy="269.73102"
                 sodipodi:cx="294.23727"
                 id="path2223"
                 style="fill:#fdfdfd;fill-opacity:1"
                 sodipodi:type="arc" />
            </g>
            <path
               sodipodi:type="arc"
               style="fill:url(#linearGradient2499);fill-opacity:1"
               id="path3200"
               sodipodi:cx="294.23727"
               sodipodi:cy="269.73102"
               sodipodi:rx="104.08394"
               sodipodi:ry="104.08394"
               d="m 398.32121,269.73102 c 0,57.48397 -46.59996,104.08394 -104.08394,104.08394 -57.48397,0 -104.08393,-46.59997 -104.08393,-104.08394 0,-57.48397 46.59996,-104.08394 104.08393,-104.08394 57.48398,0 104.08394,46.59997 104.08394,104.08394 z"
               transform="matrix(0.9311811,5.3072498e-2,-5.3072498e-2,0.9311811,34.564396,1.945886)" />
          </g>
          <path
             transform="matrix(0.8207862,4.6780563e-2,-4.6780563e-2,0.8207862,64.849149,33.073725)"
             d="m 398.32121,269.73102 c 0,57.48397 -46.59996,104.08394 -104.08394,104.08394 -57.48397,0 -104.08393,-46.59997 -104.08393,-104.08394 0,-57.48397 46.59996,-104.08394 104.08393,-104.08394 57.48398,0 104.08394,46.59997 104.08394,104.08394 z"
             sodipodi:ry="104.08394"
             sodipodi:rx="104.08394"
             sodipodi:cy="269.73102"
             sodipodi:cx="294.23727"
             id="path3216"
             style="fill:#fdfdfd;fill-opacity:1"
             sodipodi:type="arc" />
          <path
             sodipodi:open="true"
             sodipodi:end="1.5282334"
             sodipodi:start="0"
             transform="matrix(0.4301584,0.886153,-0.7143114,0.4754243,355.99034,-140.89409)"
             d="m 398.32121,269.73102 c 0,55.76143 -43.94423,101.61702 -99.65516,103.98967"
             sodipodi:ry="104.08394"
             sodipodi:rx="104.08394"
             sodipodi:cy="269.73102"
             sodipodi:cx="294.23727"
             id="path3220"
             style="fill:none;fill-opacity:1;stroke:#ffffff;stroke-width:33.48879242;stroke-miterlimit:4;stroke-dasharray:none;stroke-opacity:1"
             sodipodi:type="arc" />
        </g>
        <path
           sodipodi:type="arc"
           style="fill:#000000;fill-opacity:1;stroke:none;stroke-width:32.52899933;stroke-miterlimit:4;stroke-dasharray:none;stroke-opacity:1"
           id="path3249"
           sodipodi:cx="252.20338"
           sodipodi:cy="242.70924"
           sodipodi:rx="77.062149"
           sodipodi:ry="55.044392"
           d="m 253.92309,297.73993 c -42.54965,0.6784 -77.81289,-23.40972 -78.76266,-53.80232 -0.94977,-30.39261 32.77359,-55.58064 75.32325,-56.25905 42.54965,-0.67841 77.81289,23.40971 78.76266,53.80232 0.9362,29.95843 -31.8497,54.94785 -73.76395,56.2229"
           sodipodi:start="1.5484786"
           sodipodi:end="7.8114187"
           sodipodi:open="true"
           transform="matrix(0.1623406,0,0,0.2272763,251.79316,215.06938)" />
      </g>
      <path
         transform="matrix(0.569413,-2.7637895,2.9679915,0.5510948,-597.42512,622.28494)"
         sodipodi:open="true"
         sodipodi:end="2.4451834"
         sodipodi:start="1.5983279"
         d="m 152.34595,360.23328 c -17.00101,-0.46818 -32.98414,-8.20783 -43.89386,-21.25511"
         sodipodi:ry="59.346321"
         sodipodi:rx="59.346321"
         sodipodi:cy="300.90945"
         sodipodi:cx="153.97964"
         id="path3344"
         style="opacity:0.85;fill:#000000;fill-opacity:1;stroke:#ff0117;stroke-width:18.00000191;stroke-linecap:square;stroke-miterlimit:4;stroke-dasharray:none;stroke-opacity:1;filter:url(#filter5276)"
         sodipodi:type="arc" />
      <path
         id="path3473"
         d="M 96.560623,481.11264 C 46.771696,508.936 46.771696,508.936 46.771696,508.936"
         style="fill:none;fill-rule:evenodd;stroke:#000000;stroke-width:8.86687565;stroke-linecap:butt;stroke-linejoin:miter;stroke-miterlimit:4;stroke-dasharray:none;stroke-opacity:1" />
      <path
         id="path3476"
         d="M 364.84022,16.400761 C 364.04151,73.430986 364.04151,73.430986 364.04151,73.430986"
         style="fill:none;fill-rule:evenodd;stroke:#000000;stroke-width:8.86687565;stroke-linecap:butt;stroke-linejoin:miter;stroke-miterlimit:4;stroke-dasharray:none;stroke-opacity:1" />
      <path
         id="path3478"
         d="M 75.116693,347.43734 C 18.164764,344.34701 18.164764,344.34701 18.164764,344.34701"
         style="fill:none;fill-rule:evenodd;stroke:#000000;stroke-width:8.86687565;stroke-linecap:butt;stroke-linejoin:miter;stroke-miterlimit:4;stroke-dasharray:none;stroke-opacity:1" />
      <path
         id="path3480"
         d="M 112.11254,224.15754 C 63.523384,194.28832 63.523384,194.28832 63.523384,194.28832"
         style="fill:none;fill-rule:evenodd;stroke:#000000;stroke-width:8.86687565;stroke-linecap:butt;stroke-linejoin:miter;stroke-miterlimit:4;stroke-dasharray:none;stroke-opacity:1" />
      <path
         id="path3482"
         d="M 214.47503,116.14964 C 185.79256,66.850584 185.79256,66.850584 185.79256,66.850584"
         style="fill:none;fill-rule:evenodd;stroke:#000000;stroke-width:8.86687565;stroke-linecap:butt;stroke-linejoin:miter;stroke-miterlimit:4;stroke-dasharray:none;stroke-opacity:1" />
      <path
         id="path3484"
         d="M 539.87088,59.439843 C 510.85519,110.42278 510.85519,110.42278 510.85519,110.42278"
         style="fill:none;fill-rule:evenodd;stroke:#000000;stroke-width:8.86687565;stroke-linecap:butt;stroke-linejoin:miter;stroke-miterlimit:4;stroke-dasharray:none;stroke-opacity:1" />
      <path
         id="path3486"
         d="M 684.4193,202.26481 C 629.69164,229.72042 629.69164,229.72042 629.69164,229.72042"
         style="fill:none;fill-rule:evenodd;stroke:#000000;stroke-width:8.86687565;stroke-linecap:butt;stroke-linejoin:miter;stroke-miterlimit:4;stroke-dasharray:none;stroke-opacity:1" />
      <path
         id="path3488"
         d="M 728.83677,400.00263 C 662.98146,393.84246 662.98146,393.84246 662.98146,393.84246"
         style="fill:none;fill-rule:evenodd;stroke:#000000;stroke-width:8.86687565;stroke-linecap:butt;stroke-linejoin:miter;stroke-miterlimit:4;stroke-dasharray:none;stroke-opacity:1" />
      <path
         id="path3490"
         d="M 675.35721,560.47637 C 619.00646,523.63159 619.00646,523.63159 619.00646,523.63159"
         style="fill:none;fill-rule:evenodd;stroke:#000000;stroke-width:8.86687565;stroke-linecap:butt;stroke-linejoin:miter;stroke-miterlimit:4;stroke-dasharray:none;stroke-opacity:1" />
      <path
         id="path3492"
         d="M 552.46431,678.26822 C 517.50958,623.87141 517.50958,623.87141 517.50958,623.87141"
         style="fill:none;fill-rule:evenodd;stroke:#000000;stroke-width:8.86687565;stroke-linecap:butt;stroke-linejoin:miter;stroke-miterlimit:4;stroke-dasharray:none;stroke-opacity:1" />
      <path
         id="text3535"
         d="M 119.06417,442.62415 C 120.14496,442.6242 121.02667,442.28289 121.7093,441.60022 C 122.44879,440.86078 122.81853,439.95063 122.81855,438.86977 C 122.81853,436.42379 121.56708,435.20077 119.06417,435.20071 C 118.04024,435.20077 117.15853,435.57052 116.41904,436.30996 C 115.73642,436.99264 115.39511,437.8459 115.39512,438.86977 C 115.39511,441.37274 116.61813,442.6242 119.06417,442.62415 M 110.53149,493.82022 C 111.61229,493.82023 112.494,493.47892 113.17662,492.7963 C 113.91611,492.05681 114.28586,491.14666 114.28587,490.06585 C 114.28586,487.61982 113.0344,486.3968 110.53149,486.39679 C 109.50757,486.3968 108.62586,486.76655 107.88636,487.50604 C 107.20375,488.18866 106.86244,489.04193 106.86244,490.06585 C 106.86244,492.56877 108.08546,493.82023 110.53149,493.82022 M 127.59685,442.62415 C 128.67764,442.6242 129.55934,442.28289 130.24198,441.60022 C 130.98146,440.86078 131.35121,439.95063 131.35123,438.86977 C 131.35121,436.42379 130.09975,435.20077 127.59685,435.20071 C 126.57291,435.20077 125.6912,435.57052 124.95172,436.30996 C 124.26909,436.99264 123.92778,437.8459 123.9278,438.86977 C 123.92778,441.37274 125.1508,442.6242 127.59685,442.62415 M 119.06417,502.3529 C 120.14496,502.3529 121.02667,501.98315 121.7093,501.24366 C 122.44879,500.56104 122.81853,499.67933 122.81855,498.59853 C 122.81853,496.15249 121.56708,494.92947 119.06417,494.92947 C 118.04024,494.92947 117.15853,495.27078 116.41904,495.95339 C 115.73642,496.69289 115.39511,497.5746 115.39512,498.59853 C 115.39511,501.10144 116.61813,502.3529 119.06417,502.3529 M 110.53149,459.68951 C 111.61229,459.68954 112.494,459.34823 113.17662,458.66558 C 113.91611,457.92612 114.28586,457.01597 114.28587,455.93513 C 114.28586,453.48913 113.0344,452.26612 110.53149,452.26607 C 109.50757,452.26612 108.62586,452.63587 107.88636,453.37532 C 107.20375,454.05798 106.86244,454.91125 106.86244,455.93513 C 106.86244,458.43808 108.08546,459.68954 110.53149,459.68951 M 110.53149,451.15683 C 111.61229,451.15687 112.494,450.81556 113.17662,450.1329 C 113.91611,449.39345 114.28586,448.4833 114.28587,447.40245 C 114.28586,444.95646 113.0344,443.73345 110.53149,443.73339 C 109.50757,443.73345 108.62586,444.10319 107.88636,444.84264 C 107.20375,445.52531 106.86244,446.37857 106.86244,447.40245 C 106.86244,449.90541 108.08546,451.15687 110.53149,451.15683 M 136.12953,442.62415 C 137.21031,442.6242 138.09202,442.28289 138.77466,441.60022 C 139.51413,440.86078 139.88388,439.95063 139.88391,438.86977 C 139.88388,436.42379 138.63242,435.20077 136.12953,435.20071 C 135.10558,435.20077 134.22387,435.57052 133.4844,436.30996 C 132.80176,436.99264 132.46045,437.8459 132.46048,438.86977 C 132.46045,441.37274 133.68347,442.6242 136.12953,442.62415 M 144.66221,493.82022 C 145.74298,493.82023 146.62469,493.47892 147.30734,492.7963 C 148.0468,492.05681 148.41655,491.14666 148.41659,490.06585 C 148.41655,487.61982 147.16509,486.3968 144.66221,486.39679 C 143.63825,486.3968 142.75654,486.76655 142.01708,487.50604 C 141.33443,488.18866 140.99312,489.04193 140.99316,490.06585 C 140.99312,492.56877 142.21614,493.82023 144.66221,493.82022 M 136.12953,502.3529 C 137.21031,502.3529 138.09202,501.98315 138.77466,501.24366 C 139.51413,500.56104 139.88388,499.67933 139.88391,498.59853 C 139.88388,496.15249 138.63242,494.92947 136.12953,494.92947 C 135.10558,494.92947 134.22387,495.27078 133.4844,495.95339 C 132.80176,496.69289 132.46045,497.5746 132.46048,498.59853 C 132.46045,501.10144 133.68347,502.3529 136.12953,502.3529 M 144.66221,459.68951 C 145.74298,459.68954 146.62469,459.34823 147.30734,458.66558 C 148.0468,457.92612 148.41655,457.01597 148.41659,455.93513 C 148.41655,453.48913 147.16509,452.26612 144.66221,452.26607 C 143.63825,452.26612 142.75654,452.63587 142.01708,453.37532 C 141.33443,454.05798 140.99312,454.91125 140.99316,455.93513 C 140.99312,458.43808 142.21614,459.68954 144.66221,459.68951 M 144.66221,451.15683 C 145.74298,451.15687 146.62469,450.81556 147.30734,450.1329 C 148.0468,449.39345 148.41655,448.4833 148.41659,447.40245 C 148.41655,444.95646 147.16509,443.73345 144.66221,443.73339 C 143.63825,443.73345 142.75654,444.10319 142.01708,444.84264 C 141.33443,445.52531 140.99312,446.37857 140.99316,447.40245 C 140.99312,449.90541 142.21614,451.15687 144.66221,451.15683 M 127.59685,502.3529 C 128.67764,502.3529 129.55934,501.98315 130.24198,501.24366 C 130.98146,500.56104 131.35121,499.67933 131.35123,498.59853 C 131.35121,496.15249 130.09975,494.92947 127.59685,494.92947 C 126.57291,494.92947 125.6912,495.27078 124.95172,495.95339 C 124.26909,496.69289 123.92778,497.5746 123.9278,498.59853 C 123.92778,501.10144 125.1508,502.3529 127.59685,502.3529 M 110.53149,476.75487 C 111.61229,476.75488 112.494,476.41358 113.17662,475.73094 C 113.91611,474.99146 114.28586,474.08131 114.28587,473.00049 C 114.28586,470.55448 113.0344,469.33146 110.53149,469.33143 C 109.50757,469.33146 108.62586,469.70121 107.88636,470.44068 C 107.20375,471.12332 106.86244,471.97659 106.86244,473.00049 C 106.86244,475.50342 108.08546,476.75488 110.53149,476.75487 M 110.53149,468.22219 C 111.61229,468.22221 112.494,467.88091 113.17662,467.19826 C 113.91611,466.45879 114.28586,465.54864 114.28587,464.46781 C 114.28586,462.0218 113.0344,460.79879 110.53149,460.79875 C 109.50757,460.79879 108.62586,461.16854 107.88636,461.908 C 107.20375,462.59065 106.86244,463.44392 106.86244,464.46781 C 106.86244,466.97075 108.08546,468.22221 110.53149,468.22219 M 144.66221,476.75487 C 145.74298,476.75488 146.62469,476.41358 147.30734,475.73094 C 148.0468,474.99146 148.41655,474.08131 148.41659,473.00049 C 148.41655,470.55448 147.16509,469.33146 144.66221,469.33143 C 143.63825,469.33146 142.75654,469.70121 142.01708,470.44068 C 141.33443,471.12332 140.99312,471.97659 140.99316,473.00049 C 140.99312,475.50342 142.21614,476.75488 144.66221,476.75487 M 144.66221,468.22219 C 145.74298,468.22221 146.62469,467.88091 147.30734,467.19826 C 148.0468,466.45879 148.41655,465.54864 148.41659,464.46781 C 148.41655,462.0218 147.16509,460.79879 144.66221,460.79875 C 143.63825,460.79879 142.75654,461.16854 142.01708,461.908 C 141.33443,462.59065 140.99312,463.44392 140.99316,464.46781 C 140.99312,466.97075 142.21614,468.22221 144.66221,468.22219 M 110.53149,485.28755 C 111.61229,485.28755 112.494,484.94625 113.17662,484.26362 C 113.91611,483.52414 114.28586,482.61398 114.28587,481.53317 C 114.28586,479.08715 113.0344,477.86413 110.53149,477.86411 C 109.50757,477.86413 108.62586,478.23388 107.88636,478.97336 C 107.20375,479.65599 106.86244,480.50926 106.86244,481.53317 C 106.86244,484.0361 108.08546,485.28755 110.53149,485.28755 M 144.66221,485.28755 C 145.74298,485.28755 146.62469,484.94625 147.30734,484.26362 C 148.0468,483.52414 148.41655,482.61398 148.41659,481.53317 C 148.41655,479.08715 147.16509,477.86413 144.66221,477.86411 C 143.63825,477.86413 142.75654,478.23388 142.01708,478.97336 C 141.33443,479.65599 140.99312,480.50926 140.99316,481.53317 C 140.99312,484.0361 142.21614,485.28755 144.66221,485.28755"
         style="font-size:85.32679749px;font-style:normal;font-variant:normal;font-weight:normal;font-stretch:normal;text-align:start;line-height:100%;writing-mode:lr-tb;text-anchor:start;fill:#000000;fill-opacity:1;stroke:none;stroke-width:1px;stroke-linecap:butt;stroke-linejoin:miter;stroke-opacity:1;font-family:Bazaronite" />
      <path
         id="text3539"
         d="M 94.257132,374.38913 C 95.337932,374.38913 96.219642,374.04783 96.902262,373.36521 C 97.641754,372.62572 98.011503,371.71556 98.011511,370.63475 C 98.011503,368.18873 96.760044,366.96571 94.257132,366.9657 C 93.233207,366.96571 92.351497,367.33546 91.612001,368.07495 C 90.929386,368.75757 90.588079,369.61084 90.588079,370.63475 C 90.588079,373.13768 91.811095,374.38913 94.257132,374.38913 M 94.257132,382.92181 C 95.337932,382.92181 96.219642,382.55206 96.902262,381.81256 C 97.641754,381.12994 98.011503,380.24824 98.011511,379.16743 C 98.011503,376.7214 96.760044,375.49838 94.257132,375.49838 C 93.233207,375.49838 92.351497,375.83969 91.612001,376.5223 C 90.929386,377.2618 90.588079,378.14351 90.588079,379.16743 C 90.588079,381.67035 91.811095,382.92181 94.257132,382.92181 M 94.257132,365.85645 C 95.337932,365.85646 96.219642,365.51516 96.902262,364.83253 C 97.641754,364.09304 98.011503,363.18289 98.011511,362.10207 C 98.011503,359.65606 96.760044,358.43304 94.257132,358.43302 C 93.233207,358.43304 92.351497,358.80279 91.612001,359.54227 C 90.929386,360.2249 90.588079,361.07817 90.588079,362.10207 C 90.588079,364.605 91.811095,365.85646 94.257132,365.85645 M 94.257132,357.32377 C 95.337932,357.32379 96.219642,356.98249 96.902262,356.29985 C 97.641754,355.56037 98.011503,354.65022 98.011511,353.56939 C 98.011503,351.12338 96.760044,349.90037 94.257132,349.90034 C 93.233207,349.90037 92.351497,350.27012 91.612001,351.00959 C 90.929386,351.69223 90.588079,352.5455 90.588079,353.56939 C 90.588079,356.07233 91.811095,357.32379 94.257132,357.32377 M 94.257132,348.79109 C 95.337932,348.79112 96.219642,348.44981 96.902262,347.76717 C 97.641754,347.0277 98.011503,346.11755 98.011511,345.03672 C 98.011503,342.59071 96.760044,341.3677 94.257132,341.36766 C 93.233207,341.3677 92.351497,341.73745 91.612001,342.47691 C 90.929386,343.15956 90.588079,344.01282 90.588079,345.03672 C 90.588079,347.53966 91.811095,348.79112 94.257132,348.79109 M 94.257132,340.25841 C 95.337932,340.25845 96.219642,339.91714 96.902262,339.23449 C 97.641754,338.49503 98.011503,337.58488 98.011511,336.50404 C 98.011503,334.05804 96.760044,332.83503 94.257132,332.83498 C 93.233207,332.83503 92.351497,333.20477 91.612001,333.94423 C 90.929386,334.62689 90.588079,335.48015 90.588079,336.50404 C 90.588079,339.00699 91.811095,340.25845 94.257132,340.25841 M 94.257132,331.72573 C 95.337932,331.72578 96.219642,331.38447 96.902262,330.70181 C 97.641754,329.96236 98.011503,329.05221 98.011511,327.97136 C 98.011503,325.52537 96.760044,324.30235 94.257132,324.3023 C 93.233207,324.30235 92.351497,324.6721 91.612001,325.41155 C 90.929386,326.09422 90.588079,326.94748 90.588079,327.97136 C 90.588079,330.47432 91.811095,331.72578 94.257132,331.72573 M 94.257132,323.19306 C 95.337932,323.19311 96.219642,322.8518 96.902262,322.16913 C 97.641754,321.42969 98.011503,320.51954 98.011511,319.43868 C 98.011503,316.9927 96.760044,315.76968 94.257132,315.76962 C 93.233207,315.76968 92.351497,316.13943 91.612001,316.87887 C 90.929386,317.56154 90.588079,318.41481 90.588079,319.43868 C 90.588079,321.94165 91.811095,323.19311 94.257132,323.19306"
         style="font-size:85.32679749px;font-style:normal;font-variant:normal;font-weight:normal;font-stretch:normal;text-align:start;line-height:100%;writing-mode:lr-tb;text-anchor:start;fill:#000000;fill-opacity:1;stroke:none;stroke-width:1px;stroke-linecap:butt;stroke-linejoin:miter;stroke-opacity:1;font-family:Bazaronite" />
      <path
         id="text3543"
         d="M 132.80797,210.62503 C 133.88876,210.62508 134.77047,210.28378 135.4531,209.60111 C 136.19258,208.86166 136.56233,207.95151 136.56235,206.87065 C 136.56233,204.42468 135.31087,203.20166 132.80797,203.2016 C 131.78404,203.20166 130.90233,203.57141 130.16284,204.31085 C 129.48021,204.99352 129.13891,205.84679 129.13892,206.87065 C 129.13891,209.37363 130.36192,210.62508 132.80797,210.62503 M 124.27529,261.82111 C 125.35609,261.82111 126.2378,261.4798 126.92042,260.79719 C 127.65991,260.05769 128.02966,259.14754 128.02967,258.06673 C 128.02966,255.6207 126.7782,254.39769 124.27529,254.39768 C 123.25136,254.39769 122.36966,254.76744 121.63016,255.50693 C 120.94754,256.18955 120.60624,257.04281 120.60624,258.06673 C 120.60624,260.56965 121.82925,261.82111 124.27529,261.82111 M 141.34065,210.62503 C 142.42143,210.62508 143.30314,210.28378 143.98578,209.60111 C 144.72525,208.86166 145.095,207.95151 145.09503,206.87065 C 145.095,204.42468 143.84354,203.20166 141.34065,203.2016 C 140.31671,203.20166 139.435,203.57141 138.69552,204.31085 C 138.01289,204.99352 137.67158,205.84679 137.6716,206.87065 C 137.67158,209.37363 138.8946,210.62508 141.34065,210.62503 M 132.80797,270.35379 C 133.88876,270.35378 134.77047,269.98403 135.4531,269.24454 C 136.19258,268.56192 136.56233,267.68021 136.56235,266.59941 C 136.56233,264.15337 135.31087,262.93036 132.80797,262.93036 C 131.78404,262.93036 130.90233,263.27166 130.16284,263.95428 C 129.48021,264.69378 129.13891,265.57549 129.13892,266.59941 C 129.13891,269.10232 130.36192,270.35378 132.80797,270.35379 M 124.27529,219.15771 C 125.35609,219.15775 126.2378,218.81645 126.92042,218.13379 C 127.65991,217.39434 128.02966,216.48418 128.02967,215.40333 C 128.02966,212.95735 126.7782,211.73433 124.27529,211.73428 C 123.25136,211.73433 122.36966,212.10408 121.63016,212.84353 C 120.94754,213.52619 120.60624,214.37946 120.60624,215.40333 C 120.60624,217.9063 121.82925,219.15775 124.27529,219.15771 M 149.87333,210.62503 C 150.9541,210.62508 151.83581,210.28378 152.51846,209.60111 C 153.25793,208.86166 153.62767,207.95151 153.62771,206.87065 C 153.62767,204.42468 152.37622,203.20166 149.87333,203.2016 C 148.84938,203.20166 147.96767,203.57141 147.2282,204.31085 C 146.54556,204.99352 146.20425,205.84679 146.20428,206.87065 C 146.20425,209.37363 147.42727,210.62508 149.87333,210.62503 M 124.27529,270.35379 C 125.35609,270.35378 126.2378,269.98403 126.92042,269.24454 C 127.65991,268.56192 128.02966,267.68021 128.02967,266.59941 C 128.02966,264.15337 126.7782,262.93036 124.27529,262.93036 C 123.25136,262.93036 122.36966,263.27166 121.63016,263.95428 C 120.94754,264.69378 120.60624,265.57549 120.60624,266.59941 C 120.60624,269.10232 121.82925,270.35378 124.27529,270.35379 M 149.87333,270.35379 C 150.9541,270.35378 151.83581,269.98403 152.51846,269.24454 C 153.25793,268.56192 153.62767,267.68021 153.62771,266.59941 C 153.62767,264.15337 152.37622,262.93036 149.87333,262.93036 C 148.84938,262.93036 147.96767,263.27166 147.2282,263.95428 C 146.54556,264.69378 146.20425,265.57549 146.20428,266.59941 C 146.20425,269.10232 147.42727,270.35378 149.87333,270.35379 M 158.40601,227.69039 C 159.48678,227.69043 160.36848,227.34912 161.05114,226.66647 C 161.7906,225.92701 162.16035,225.01686 162.16039,223.93601 C 162.16035,221.49002 160.90889,220.267 158.40601,220.26696 C 157.38205,220.267 156.50034,220.63675 155.76088,221.37621 C 155.07823,222.05886 154.73692,222.91213 154.73696,223.93601 C 154.73692,226.43897 155.95994,227.69043 158.40601,227.69039 M 158.40601,219.15771 C 159.48678,219.15775 160.36848,218.81645 161.05114,218.13379 C 161.7906,217.39434 162.16035,216.48418 162.16039,215.40333 C 162.16035,212.95735 160.90889,211.73433 158.40601,211.73428 C 157.38205,211.73433 156.50034,212.10408 155.76088,212.84353 C 155.07823,213.52619 154.73692,214.37946 154.73696,215.40333 C 154.73692,217.9063 155.95994,219.15775 158.40601,219.15771 M 141.34065,270.35379 C 142.42143,270.35378 143.30314,269.98403 143.98578,269.24454 C 144.72525,268.56192 145.095,267.68021 145.09503,266.59941 C 145.095,264.15337 143.84354,262.93036 141.34065,262.93036 C 140.31671,262.93036 139.435,263.27166 138.69552,263.95428 C 138.01289,264.69378 137.67158,265.57549 137.6716,266.59941 C 137.67158,269.10232 138.8946,270.35378 141.34065,270.35379 M 124.27529,244.75575 C 125.35609,244.75577 126.2378,244.41446 126.92042,243.73183 C 127.65991,242.99235 128.02966,242.0822 128.02967,241.00137 C 128.02966,238.55536 126.7782,237.33234 124.27529,237.33232 C 123.25136,237.33234 122.36966,237.70209 121.63016,238.44157 C 120.94754,239.12421 120.60624,239.97747 120.60624,241.00137 C 120.60624,243.50431 121.82925,244.75577 124.27529,244.75575 M 124.27529,253.28843 C 125.35609,253.28844 126.2378,252.94713 126.92042,252.26451 C 127.65991,251.52502 128.02966,250.61487 128.02967,249.53405 C 128.02966,247.08803 126.7782,245.86502 124.27529,245.865 C 123.25136,245.86502 122.36966,246.23476 121.63016,246.97425 C 120.94754,247.65688 120.60624,248.51014 120.60624,249.53405 C 120.60624,252.03698 121.82925,253.28844 124.27529,253.28843 M 132.80797,236.22307 C 133.88876,236.2231 134.77047,235.88179 135.4531,235.19915 C 136.19258,234.45968 136.56233,233.54953 136.56235,232.46869 C 136.56233,230.02269 135.31087,228.79967 132.80797,228.79964 C 131.78404,228.79967 130.90233,229.16942 130.16284,229.90889 C 129.48021,230.59153 129.13891,231.4448 129.13892,232.46869 C 129.13891,234.97164 130.36192,236.2231 132.80797,236.22307 M 141.34065,236.22307 C 142.42143,236.2231 143.30314,235.88179 143.98578,235.19915 C 144.72525,234.45968 145.095,233.54953 145.09503,232.46869 C 145.095,230.02269 143.84354,228.79967 141.34065,228.79964 C 140.31671,228.79967 139.435,229.16942 138.69552,229.90889 C 138.01289,230.59153 137.67158,231.4448 137.6716,232.46869 C 137.67158,234.97164 138.8946,236.2231 141.34065,236.22307 M 149.87333,236.22307 C 150.9541,236.2231 151.83581,235.88179 152.51846,235.19915 C 153.25793,234.45968 153.62767,233.54953 153.62771,232.46869 C 153.62767,230.02269 152.37622,228.79967 149.87333,228.79964 C 148.84938,228.79967 147.96767,229.16942 147.2282,229.90889 C 146.54556,230.59153 146.20425,231.4448 146.20428,232.46869 C 146.20425,234.97164 147.42727,236.2231 149.87333,236.22307 M 158.40601,270.35379 C 159.48678,270.35378 160.36848,269.98403 161.05114,269.24454 C 161.7906,268.56192 162.16035,267.68021 162.16039,266.59941 C 162.16035,264.15337 160.90889,262.93036 158.40601,262.93036 C 157.38205,262.93036 156.50034,263.27166 155.76088,263.95428 C 155.07823,264.69378 154.73692,265.57549 154.73696,266.59941 C 154.73692,269.10232 155.95994,270.35378 158.40601,270.35379"
         style="font-size:85.32679749px;font-style:normal;font-variant:normal;font-weight:normal;font-stretch:normal;text-align:start;line-height:100%;writing-mode:lr-tb;text-anchor:start;fill:#000000;fill-opacity:1;stroke:none;stroke-width:1px;stroke-linecap:butt;stroke-linejoin:miter;stroke-opacity:1;font-family:Bazaronite" />
      <path
         id="text3547"
         d="M 224.36329,126.57423 C 225.44408,126.57429 226.32579,126.23298 227.00842,125.55031 C 227.7479,124.81087 228.11765,123.90072 228.11767,122.81986 C 228.11765,120.37388 226.86619,119.15086 224.36329,119.1508 C 223.33936,119.15086 222.45765,119.52061 221.71816,120.26005 C 221.03554,120.94272 220.69423,121.79599 220.69424,122.81986 C 220.69423,125.32283 221.91724,126.57429 224.36329,126.57423 M 215.83061,177.77031 C 216.91141,177.77031 217.79312,177.42901 218.47574,176.74639 C 219.21523,176.0069 219.58498,175.09674 219.58499,174.01593 C 219.58498,171.56991 218.33352,170.34689 215.83061,170.34688 C 214.80669,170.34689 213.92498,170.71664 213.18548,171.45613 C 212.50286,172.13875 212.16156,172.99202 212.16156,174.01593 C 212.16156,176.51886 213.38457,177.77031 215.83061,177.77031 M 232.89597,126.57423 C 233.97675,126.57429 234.85846,126.23298 235.5411,125.55031 C 236.28057,124.81087 236.65032,123.90072 236.65035,122.81986 C 236.65032,120.37388 235.39887,119.15086 232.89597,119.1508 C 231.87203,119.15086 230.99032,119.52061 230.25084,120.26005 C 229.56821,120.94272 229.2269,121.79599 229.22692,122.81986 C 229.2269,125.32283 230.44992,126.57429 232.89597,126.57423 M 224.36329,186.30299 C 225.44408,186.30299 226.32579,185.93324 227.00842,185.19374 C 227.7479,184.51112 228.11765,183.62942 228.11767,182.54861 C 228.11765,180.10258 226.86619,178.87956 224.36329,178.87956 C 223.33936,178.87956 222.45765,179.22087 221.71816,179.90348 C 221.03554,180.64298 220.69423,181.52469 220.69424,182.54861 C 220.69423,185.05153 221.91724,186.30299 224.36329,186.30299 M 215.83061,135.10691 C 216.91141,135.10696 217.79312,134.76565 218.47574,134.08299 C 219.21523,133.34354 219.58498,132.43339 219.58499,131.35254 C 219.58498,128.90655 218.33352,127.68353 215.83061,127.68348 C 214.80669,127.68353 213.92498,128.05328 213.18548,128.79273 C 212.50286,129.4754 212.16156,130.32866 212.16156,131.35254 C 212.16156,133.8555 213.38457,135.10696 215.83061,135.10691 M 241.42865,126.57423 C 242.50942,126.57429 243.39113,126.23298 244.07378,125.55031 C 244.81325,124.81087 245.183,123.90072 245.18303,122.81986 C 245.183,120.37388 243.93154,119.15086 241.42865,119.1508 C 240.4047,119.15086 239.52299,119.52061 238.78352,120.26005 C 238.10088,120.94272 237.75957,121.79599 237.7596,122.81986 C 237.75957,125.32283 238.98259,126.57429 241.42865,126.57423 M 249.96133,177.77031 C 251.0421,177.77031 251.92381,177.42901 252.60646,176.74639 C 253.34592,176.0069 253.71567,175.09674 253.71571,174.01593 C 253.71567,171.56991 252.46421,170.34689 249.96133,170.34688 C 248.93737,170.34689 248.05566,170.71664 247.3162,171.45613 C 246.63355,172.13875 246.29224,172.99202 246.29228,174.01593 C 246.29224,176.51886 247.51526,177.77031 249.96133,177.77031 M 241.42865,186.30299 C 242.50942,186.30299 243.39113,185.93324 244.07378,185.19374 C 244.81325,184.51112 245.183,183.62942 245.18303,182.54861 C 245.183,180.10258 243.93154,178.87956 241.42865,178.87956 C 240.4047,178.87956 239.52299,179.22087 238.78352,179.90348 C 238.10088,180.64298 237.75957,181.52469 237.7596,182.54861 C 237.75957,185.05153 238.98259,186.30299 241.42865,186.30299 M 249.96133,143.63959 C 251.0421,143.63963 251.92381,143.29832 252.60646,142.61567 C 253.34592,141.87621 253.71567,140.96606 253.71571,139.88522 C 253.71567,137.43922 252.46421,136.21621 249.96133,136.21616 C 248.93737,136.21621 248.05566,136.58595 247.3162,137.32541 C 246.63355,138.00807 246.29224,138.86133 246.29228,139.88522 C 246.29224,142.38817 247.51526,143.63963 249.96133,143.63959 M 249.96133,135.10691 C 251.0421,135.10696 251.92381,134.76565 252.60646,134.08299 C 253.34592,133.34354 253.71567,132.43339 253.71571,131.35254 C 253.71567,128.90655 252.46421,127.68353 249.96133,127.68348 C 248.93737,127.68353 248.05566,128.05328 247.3162,128.79273 C 246.63355,129.4754 246.29224,130.32866 246.29228,131.35254 C 246.29224,133.8555 247.51526,135.10696 249.96133,135.10691 M 232.89597,186.30299 C 233.97675,186.30299 234.85846,185.93324 235.5411,185.19374 C 236.28057,184.51112 236.65032,183.62942 236.65035,182.54861 C 236.65032,180.10258 235.39887,178.87956 232.89597,178.87956 C 231.87203,178.87956 230.99032,179.22087 230.25084,179.90348 C 229.56821,180.64298 229.2269,181.52469 229.22692,182.54861 C 229.2269,185.05153 230.44992,186.30299 232.89597,186.30299 M 249.96133,160.70495 C 251.0421,160.70497 251.92381,160.36366 252.60646,159.68103 C 253.34592,158.94155 253.71567,158.0314 253.71571,156.95057 C 253.71567,154.50456 252.46421,153.28155 249.96133,153.28152 C 248.93737,153.28155 248.05566,153.6513 247.3162,154.39077 C 246.63355,155.07341 246.29224,155.92668 246.29228,156.95057 C 246.29224,159.45351 247.51526,160.70497 249.96133,160.70495 M 249.96133,169.23763 C 251.0421,169.23764 251.92381,168.89634 252.60646,168.21371 C 253.34592,167.47422 253.71567,166.56407 253.71571,165.48325 C 253.71567,163.03724 252.46421,161.81422 249.96133,161.8142 C 248.93737,161.81422 248.05566,162.18397 247.3162,162.92345 C 246.63355,163.60608 246.29224,164.45935 246.29228,165.48325 C 246.29224,167.98618 247.51526,169.23764 249.96133,169.23763 M 224.36329,152.17227 C 225.44408,152.1723 226.32579,151.83099 227.00842,151.14835 C 227.7479,150.40888 228.11765,149.49873 228.11767,148.41789 C 228.11765,145.97189 226.86619,144.74888 224.36329,144.74884 C 223.33936,144.74888 222.45765,145.11863 221.71816,145.85809 C 221.03554,146.54074 220.69423,147.394 220.69424,148.41789 C 220.69423,150.92084 221.91724,152.1723 224.36329,152.17227 M 232.89597,152.17227 C 233.97675,152.1723 234.85846,151.83099 235.5411,151.14835 C 236.28057,150.40888 236.65032,149.49873 236.65035,148.41789 C 236.65032,145.97189 235.39887,144.74888 232.89597,144.74884 C 231.87203,144.74888 230.99032,145.11863 230.25084,145.85809 C 229.56821,146.54074 229.2269,147.394 229.22692,148.41789 C 229.2269,150.92084 230.44992,152.1723 232.89597,152.17227 M 241.42865,152.17227 C 242.50942,152.1723 243.39113,151.83099 244.07378,151.14835 C 244.81325,150.40888 245.183,149.49873 245.18303,148.41789 C 245.183,145.97189 243.93154,144.74888 241.42865,144.74884 C 240.4047,144.74888 239.52299,145.11863 238.78352,145.85809 C 238.10088,146.54074 237.75957,147.394 237.7596,148.41789 C 237.75957,150.92084 238.98259,152.1723 241.42865,152.17227"
         style="font-size:85.32679749px;font-style:normal;font-variant:normal;font-weight:normal;font-stretch:normal;text-align:start;line-height:100%;writing-mode:lr-tb;text-anchor:start;fill:#000000;fill-opacity:1;stroke:none;stroke-width:1px;stroke-linecap:butt;stroke-linejoin:miter;stroke-opacity:1;font-family:Bazaronite" />
      <path
         id="text3551"
         d="M 346.40947,90.552476 C 347.49027,90.552528 348.37198,90.211221 349.0546,89.528554 C 349.79409,88.789109 350.16384,87.878958 350.16385,86.798097 C 350.16384,84.35212 348.91238,83.129104 346.40947,83.129044 C 345.38554,83.129104 344.50383,83.498853 343.76434,84.238293 C 343.08172,84.920965 342.74041,85.774232 342.74042,86.798097 C 342.74041,89.301069 343.96343,90.552528 346.40947,90.552476 M 346.40947,107.61784 C 347.49027,107.61787 348.37198,107.27656 349.0546,106.59391 C 349.79409,105.85445 350.16384,104.9443 350.16385,103.86346 C 350.16384,101.41746 348.91238,100.19445 346.40947,100.1944 C 345.38554,100.19445 344.50383,100.5642 343.76434,101.30365 C 343.08172,101.98631 342.74041,102.83957 342.74042,103.86346 C 342.74041,106.36641 343.96343,107.61787 346.40947,107.61784 M 346.40947,99.085156 C 347.49027,99.085199 348.37198,98.743892 349.0546,98.061234 C 349.79409,97.32178 350.16384,96.411629 350.16385,95.330776 C 350.16384,92.884791 348.91238,91.661775 346.40947,91.661724 C 345.38554,91.661775 344.50383,92.031524 343.76434,92.770973 C 343.08172,93.453636 342.74041,94.306903 342.74042,95.330776 C 342.74041,97.833741 343.96343,99.085199 346.40947,99.085156 M 380.54019,90.552476 C 381.62095,90.552528 382.50266,90.211221 383.18532,89.528554 C 383.92477,88.789109 384.29452,87.878958 384.29457,86.798097 C 384.29452,84.35212 383.04307,83.129104 380.54019,83.129044 C 379.51623,83.129104 378.63452,83.498853 377.89506,84.238293 C 377.21241,84.920965 376.8711,85.774232 376.87113,86.798097 C 376.8711,89.301069 378.09412,90.552528 380.54019,90.552476 M 380.54019,141.74855 C 381.62095,141.74856 382.50266,141.40725 383.18532,140.72463 C 383.92477,139.98514 384.29452,139.07498 384.29457,137.99418 C 384.29452,135.54815 383.04307,134.32513 380.54019,134.32512 C 379.51623,134.32513 378.63452,134.69488 377.89506,135.43437 C 377.21241,136.11699 376.8711,136.97026 376.87113,137.99418 C 376.8711,140.4971 378.09412,141.74856 380.54019,141.74855 M 380.54019,150.28123 C 381.62095,150.28123 382.50266,149.91148 383.18532,149.17199 C 383.92477,148.48937 384.29452,147.60766 384.29457,146.52685 C 384.29452,144.08082 383.04307,142.8578 380.54019,142.8578 C 379.51623,142.8578 378.63452,143.19911 377.89506,143.88172 C 377.21241,144.62122 376.8711,145.50293 376.87113,146.52685 C 376.8711,149.02977 378.09412,150.28123 380.54019,150.28123 M 380.54019,107.61784 C 381.62095,107.61787 382.50266,107.27656 383.18532,106.59391 C 383.92477,105.85445 384.29452,104.9443 384.29457,103.86346 C 384.29452,101.41746 383.04307,100.19445 380.54019,100.1944 C 379.51623,100.19445 378.63452,100.5642 377.89506,101.30365 C 377.21241,101.98631 376.8711,102.83957 376.87113,103.86346 C 376.8711,106.36641 378.09412,107.61787 380.54019,107.61784 M 380.54019,99.085156 C 381.62095,99.085199 382.50266,98.743892 383.18532,98.061234 C 383.92477,97.32178 384.29452,96.411629 384.29457,95.330776 C 384.29452,92.884791 383.04307,91.661775 380.54019,91.661724 C 379.51623,91.661775 378.63452,92.031524 377.89506,92.770973 C 377.21241,93.453636 376.8711,94.306903 376.87113,95.330776 C 376.8711,97.833741 378.09412,99.085199 380.54019,99.085156 M 380.54019,124.68319 C 381.62095,124.68321 382.50266,124.34191 383.18532,123.65927 C 383.92477,122.91979 384.29452,122.00964 384.29457,120.92882 C 384.29452,118.48281 383.04307,117.25979 380.54019,117.25976 C 379.51623,117.25979 378.63452,117.62954 377.89506,118.36901 C 377.21241,119.05165 376.8711,119.90492 376.87113,120.92882 C 376.8711,123.43175 378.09412,124.68321 380.54019,124.68319 M 380.54019,116.15052 C 381.62095,116.15054 382.50266,115.80923 383.18532,115.12659 C 383.92477,114.38712 384.29452,113.47697 384.29457,112.39614 C 384.29452,109.95013 383.04307,108.72712 380.54019,108.72708 C 379.51623,108.72712 378.63452,109.09687 377.89506,109.83633 C 377.21241,110.51898 376.8711,111.37225 376.87113,112.39614 C 376.8711,114.89908 378.09412,116.15054 380.54019,116.15052 M 380.54019,133.21587 C 381.62095,133.21588 382.50266,132.87458 383.18532,132.19195 C 383.92477,131.45247 384.29452,130.54231 384.29457,129.4615 C 384.29452,127.01548 383.04307,125.79246 380.54019,125.79244 C 379.51623,125.79246 378.63452,126.16221 377.89506,126.90169 C 377.21241,127.58432 376.8711,128.43759 376.87113,129.4615 C 376.8711,131.96443 378.09412,133.21588 380.54019,133.21587 M 354.94215,116.15052 C 356.02294,116.15054 356.90465,115.80923 357.58728,115.12659 C 358.32676,114.38712 358.69651,113.47697 358.69653,112.39614 C 358.69651,109.95013 357.44505,108.72712 354.94215,108.72708 C 353.91821,108.72712 353.0365,109.09687 352.29702,109.83633 C 351.61439,110.51898 351.27309,111.37225 351.2731,112.39614 C 351.27309,114.89908 352.4961,116.15054 354.94215,116.15052 M 363.47483,116.15052 C 364.55561,116.15054 365.43732,115.80923 366.11996,115.12659 C 366.85943,114.38712 367.22918,113.47697 367.22921,112.39614 C 367.22918,109.95013 365.97772,108.72712 363.47483,108.72708 C 362.45089,108.72712 361.56918,109.09687 360.8297,109.83633 C 360.14706,110.51898 359.80576,111.37225 359.80577,112.39614 C 359.80576,114.89908 361.02877,116.15054 363.47483,116.15052 M 372.00751,116.15052 C 373.08828,116.15054 373.96999,115.80923 374.65264,115.12659 C 375.3921,114.38712 375.76185,113.47697 375.76189,112.39614 C 375.76185,109.95013 374.51039,108.72712 372.00751,108.72708 C 370.98356,108.72712 370.10185,109.09687 369.36238,109.83633 C 368.67974,110.51898 368.33843,111.37225 368.33845,112.39614 C 368.33843,114.89908 369.56144,116.15054 372.00751,116.15052"
         style="font-size:85.32679749px;font-style:normal;font-variant:normal;font-weight:normal;font-stretch:normal;text-align:start;line-height:100%;writing-mode:lr-tb;text-anchor:start;fill:#000000;fill-opacity:1;stroke:none;stroke-width:1px;stroke-linecap:butt;stroke-linejoin:miter;stroke-opacity:1;font-family:Bazaronite" />
      <path
         id="text3555"
         d="M 481.01832,126.57423 C 482.09911,126.57429 482.98082,126.23298 483.66345,125.55031 C 484.40293,124.81087 484.77268,123.90072 484.7727,122.81986 C 484.77268,120.37388 483.52122,119.15086 481.01832,119.1508 C 479.99439,119.15086 479.11268,119.52061 478.37319,120.26005 C 477.69056,120.94272 477.34926,121.79599 477.34927,122.81986 C 477.34926,125.32283 478.57227,126.57429 481.01832,126.57423 M 472.48564,177.77031 C 473.56644,177.77031 474.44815,177.42901 475.13077,176.74639 C 475.87026,176.0069 476.24001,175.09674 476.24002,174.01593 C 476.24001,171.56991 474.98855,170.34689 472.48564,170.34688 C 471.46171,170.34689 470.58001,170.71664 469.84051,171.45613 C 469.15789,172.13875 468.81659,172.99202 468.81659,174.01593 C 468.81659,176.51886 470.0396,177.77031 472.48564,177.77031 M 489.551,126.57423 C 490.63178,126.57429 491.51349,126.23298 492.19613,125.55031 C 492.9356,124.81087 493.30535,123.90072 493.30538,122.81986 C 493.30535,120.37388 492.05389,119.15086 489.551,119.1508 C 488.52706,119.15086 487.64535,119.52061 486.90587,120.26005 C 486.22324,120.94272 485.88193,121.79599 485.88195,122.81986 C 485.88193,125.32283 487.10495,126.57429 489.551,126.57423 M 481.01832,186.30299 C 482.09911,186.30299 482.98082,185.93324 483.66345,185.19374 C 484.40293,184.51112 484.77268,183.62942 484.7727,182.54861 C 484.77268,180.10258 483.52122,178.87956 481.01832,178.87956 C 479.99439,178.87956 479.11268,179.22087 478.37319,179.90348 C 477.69056,180.64298 477.34926,181.52469 477.34927,182.54861 C 477.34926,185.05153 478.57227,186.30299 481.01832,186.30299 M 472.48564,143.63959 C 473.56644,143.63963 474.44815,143.29832 475.13077,142.61567 C 475.87026,141.87621 476.24001,140.96606 476.24002,139.88522 C 476.24001,137.43922 474.98855,136.21621 472.48564,136.21616 C 471.46171,136.21621 470.58001,136.58595 469.84051,137.32541 C 469.15789,138.00807 468.81659,138.86133 468.81659,139.88522 C 468.81659,142.38817 470.0396,143.63963 472.48564,143.63959 M 472.48564,135.10691 C 473.56644,135.10696 474.44815,134.76565 475.13077,134.08299 C 475.87026,133.34354 476.24001,132.43339 476.24002,131.35254 C 476.24001,128.90655 474.98855,127.68353 472.48564,127.68348 C 471.46171,127.68353 470.58001,128.05328 469.84051,128.79273 C 469.15789,129.4754 468.81659,130.32866 468.81659,131.35254 C 468.81659,133.8555 470.0396,135.10696 472.48564,135.10691 M 498.08368,126.57423 C 499.16445,126.57429 500.04616,126.23298 500.72881,125.55031 C 501.46828,124.81087 501.83802,123.90072 501.83806,122.81986 C 501.83802,120.37388 500.58657,119.15086 498.08368,119.1508 C 497.05973,119.15086 496.17802,119.52061 495.43855,120.26005 C 494.75591,120.94272 494.4146,121.79599 494.41463,122.81986 C 494.4146,125.32283 495.63762,126.57429 498.08368,126.57423 M 506.61636,177.77031 C 507.69713,177.77031 508.57883,177.42901 509.26149,176.74639 C 510.00095,176.0069 510.3707,175.09674 510.37074,174.01593 C 510.3707,171.56991 509.11924,170.34689 506.61636,170.34688 C 505.5924,170.34689 504.71069,170.71664 503.97123,171.45613 C 503.28858,172.13875 502.94727,172.99202 502.94731,174.01593 C 502.94727,176.51886 504.17029,177.77031 506.61636,177.77031 M 498.08368,186.30299 C 499.16445,186.30299 500.04616,185.93324 500.72881,185.19374 C 501.46828,184.51112 501.83802,183.62942 501.83806,182.54861 C 501.83802,180.10258 500.58657,178.87956 498.08368,178.87956 C 497.05973,178.87956 496.17802,179.22087 495.43855,179.90348 C 494.75591,180.64298 494.4146,181.52469 494.41463,182.54861 C 494.4146,185.05153 495.63762,186.30299 498.08368,186.30299 M 472.48564,126.57423 C 473.56644,126.57429 474.44815,126.23298 475.13077,125.55031 C 475.87026,124.81087 476.24001,123.90072 476.24002,122.81986 C 476.24001,120.37388 474.98855,119.15086 472.48564,119.1508 C 471.46171,119.15086 470.58001,119.52061 469.84051,120.26005 C 469.15789,120.94272 468.81659,121.79599 468.81659,122.81986 C 468.81659,125.32283 470.0396,126.57429 472.48564,126.57423 M 506.61636,126.57423 C 507.69713,126.57429 508.57883,126.23298 509.26149,125.55031 C 510.00095,124.81087 510.3707,123.90072 510.37074,122.81986 C 510.3707,120.37388 509.11924,119.15086 506.61636,119.1508 C 505.5924,119.15086 504.71069,119.52061 503.97123,120.26005 C 503.28858,120.94272 502.94727,121.79599 502.94731,122.81986 C 502.94727,125.32283 504.17029,126.57429 506.61636,126.57423 M 489.551,186.30299 C 490.63178,186.30299 491.51349,185.93324 492.19613,185.19374 C 492.9356,184.51112 493.30535,183.62942 493.30538,182.54861 C 493.30535,180.10258 492.05389,178.87956 489.551,178.87956 C 488.52706,178.87956 487.64535,179.22087 486.90587,179.90348 C 486.22324,180.64298 485.88193,181.52469 485.88195,182.54861 C 485.88193,185.05153 487.10495,186.30299 489.551,186.30299 M 472.48564,152.17227 C 473.56644,152.1723 474.44815,151.83099 475.13077,151.14835 C 475.87026,150.40888 476.24001,149.49873 476.24002,148.41789 C 476.24001,145.97189 474.98855,144.74888 472.48564,144.74884 C 471.46171,144.74888 470.58001,145.11863 469.84051,145.85809 C 469.15789,146.54074 468.81659,147.394 468.81659,148.41789 C 468.81659,150.92084 470.0396,152.1723 472.48564,152.17227 M 506.61636,160.70495 C 507.69713,160.70497 508.57883,160.36366 509.26149,159.68103 C 510.00095,158.94155 510.3707,158.0314 510.37074,156.95057 C 510.3707,154.50456 509.11924,153.28155 506.61636,153.28152 C 505.5924,153.28155 504.71069,153.6513 503.97123,154.39077 C 503.28858,155.07341 502.94727,155.92668 502.94731,156.95057 C 502.94727,159.45351 504.17029,160.70497 506.61636,160.70495 M 506.61636,169.23763 C 507.69713,169.23764 508.57883,168.89634 509.26149,168.21371 C 510.00095,167.47422 510.3707,166.56407 510.37074,165.48325 C 510.3707,163.03724 509.11924,161.81422 506.61636,161.8142 C 505.5924,161.81422 504.71069,162.18397 503.97123,162.92345 C 503.28858,163.60608 502.94727,164.45935 502.94731,165.48325 C 502.94727,167.98618 504.17029,169.23764 506.61636,169.23763 M 481.01832,152.17227 C 482.09911,152.1723 482.98082,151.83099 483.66345,151.14835 C 484.40293,150.40888 484.77268,149.49873 484.7727,148.41789 C 484.77268,145.97189 483.52122,144.74888 481.01832,144.74884 C 479.99439,144.74888 479.11268,145.11863 478.37319,145.85809 C 477.69056,146.54074 477.34926,147.394 477.34927,148.41789 C 477.34926,150.92084 478.57227,152.1723 481.01832,152.17227 M 489.551,152.17227 C 490.63178,152.1723 491.51349,151.83099 492.19613,151.14835 C 492.9356,150.40888 493.30535,149.49873 493.30538,148.41789 C 493.30535,145.97189 492.05389,144.74888 489.551,144.74884 C 488.52706,144.74888 487.64535,145.11863 486.90587,145.85809 C 486.22324,146.54074 485.88193,147.394 485.88195,148.41789 C 485.88193,150.92084 487.10495,152.1723 489.551,152.17227 M 498.08368,152.17227 C 499.16445,152.1723 500.04616,151.83099 500.72881,151.14835 C 501.46828,150.40888 501.83802,149.49873 501.83806,148.41789 C 501.83802,145.97189 500.58657,144.74888 498.08368,144.74884 C 497.05973,144.74888 496.17802,145.11863 495.43855,145.85809 C 494.75591,146.54074 494.4146,147.394 494.41463,148.41789 C 494.4146,150.92084 495.63762,152.1723 498.08368,152.17227"
         style="font-size:85.32679749px;font-style:normal;font-variant:normal;font-weight:normal;font-stretch:normal;text-align:start;line-height:100%;writing-mode:lr-tb;text-anchor:start;fill:#000000;fill-opacity:1;stroke:none;stroke-width:1px;stroke-linecap:butt;stroke-linejoin:miter;stroke-opacity:1;font-family:Bazaronite" />
      <path
         id="text3559"
         d="M 589.08375,215.12772 C 590.16454,215.12777 591.04625,214.78646 591.72888,214.1038 C 592.46836,213.36435 592.83811,212.4542 592.83813,211.37334 C 592.83811,208.92736 591.58665,207.70435 589.08375,207.70429 C 588.05982,207.70435 587.17811,208.07409 586.43862,208.81353 C 585.75599,209.49621 585.41469,210.34947 585.4147,211.37334 C 585.41469,213.87631 586.6377,215.12777 589.08375,215.12772 M 580.55107,266.3238 C 581.63187,266.3238 582.51358,265.98249 583.1962,265.29987 C 583.93569,264.56038 584.30544,263.65023 584.30545,262.56942 C 584.30544,260.12339 583.05398,258.90037 580.55107,258.90036 C 579.52714,258.90037 578.64544,259.27012 577.90594,260.00961 C 577.22332,260.69223 576.88202,261.5455 576.88202,262.56942 C 576.88202,265.07234 578.10503,266.3238 580.55107,266.3238 M 597.61643,215.12772 C 598.69721,215.12777 599.57892,214.78646 600.26156,214.1038 C 601.00103,213.36435 601.37078,212.4542 601.37081,211.37334 C 601.37078,208.92736 600.11932,207.70435 597.61643,207.70429 C 596.59249,207.70435 595.71078,208.07409 594.9713,208.81353 C 594.28867,209.49621 593.94736,210.34947 593.94738,211.37334 C 593.94736,213.87631 595.17038,215.12777 597.61643,215.12772 M 589.08375,274.85648 C 590.16454,274.85647 591.04625,274.48672 591.72888,273.74723 C 592.46836,273.06461 592.83811,272.1829 592.83813,271.1021 C 592.83811,268.65606 591.58665,267.43304 589.08375,267.43304 C 588.05982,267.43304 587.17811,267.77435 586.43862,268.45697 C 585.75599,269.19646 585.41469,270.07817 585.4147,271.1021 C 585.41469,273.60501 586.6377,274.85647 589.08375,274.85648 M 580.55107,232.19308 C 581.63187,232.19311 582.51358,231.8518 583.1962,231.16915 C 583.93569,230.42969 584.30544,229.51954 584.30545,228.4387 C 584.30544,225.9927 583.05398,224.76969 580.55107,224.76964 C 579.52714,224.76969 578.64544,225.13944 577.90594,225.87889 C 577.22332,226.56155 576.88202,227.41482 576.88202,228.4387 C 576.88202,230.94165 578.10503,232.19311 580.55107,232.19308 M 580.55107,223.6604 C 581.63187,223.66044 582.51358,223.31913 583.1962,222.63648 C 583.93569,221.89702 584.30544,220.98687 584.30545,219.90602 C 584.30544,217.46003 583.05398,216.23702 580.55107,216.23697 C 579.52714,216.23702 578.64544,216.60677 577.90594,217.34621 C 577.22332,218.02888 576.88202,218.88214 576.88202,219.90602 C 576.88202,222.40898 578.10503,223.66044 580.55107,223.6604 M 606.14911,215.12772 C 607.22988,215.12777 608.11159,214.78646 608.79424,214.1038 C 609.5337,213.36435 609.90345,212.4542 609.90349,211.37334 C 609.90345,208.92736 608.652,207.70435 606.14911,207.70429 C 605.12516,207.70435 604.24345,208.07409 603.50398,208.81353 C 602.82134,209.49621 602.48003,210.34947 602.48006,211.37334 C 602.48003,213.87631 603.70305,215.12777 606.14911,215.12772 M 614.68179,266.3238 C 615.76255,266.3238 616.64426,265.98249 617.32692,265.29987 C 618.06638,264.56038 618.43613,263.65023 618.43617,262.56942 C 618.43613,260.12339 617.18467,258.90037 614.68179,258.90036 C 613.65783,258.90037 612.77612,259.27012 612.03666,260.00961 C 611.35401,260.69223 611.0127,261.5455 611.01274,262.56942 C 611.0127,265.07234 612.23572,266.3238 614.68179,266.3238 M 606.14911,274.85648 C 607.22988,274.85647 608.11159,274.48672 608.79424,273.74723 C 609.5337,273.06461 609.90345,272.1829 609.90349,271.1021 C 609.90345,268.65606 608.652,267.43304 606.14911,267.43304 C 605.12516,267.43304 604.24345,267.77435 603.50398,268.45697 C 602.82134,269.19646 602.48003,270.07817 602.48006,271.1021 C 602.48003,273.60501 603.70305,274.85647 606.14911,274.85648 M 614.68179,223.6604 C 615.76255,223.66044 616.64426,223.31913 617.32692,222.63648 C 618.06638,221.89702 618.43613,220.98687 618.43617,219.90602 C 618.43613,217.46003 617.18467,216.23702 614.68179,216.23697 C 613.65783,216.23702 612.77612,216.60677 612.03666,217.34621 C 611.35401,218.02888 611.0127,218.88214 611.01274,219.90602 C 611.0127,222.40898 612.23572,223.66044 614.68179,223.6604 M 597.61643,274.85648 C 598.69721,274.85647 599.57892,274.48672 600.26156,273.74723 C 601.00103,273.06461 601.37078,272.1829 601.37081,271.1021 C 601.37078,268.65606 600.11932,267.43304 597.61643,267.43304 C 596.59249,267.43304 595.71078,267.77435 594.9713,268.45697 C 594.28867,269.19646 593.94736,270.07817 593.94738,271.1021 C 593.94736,273.60501 595.17038,274.85647 597.61643,274.85648 M 580.55107,249.25844 C 581.63187,249.25845 582.51358,248.91715 583.1962,248.23451 C 583.93569,247.49504 584.30544,246.58488 584.30545,245.50406 C 584.30544,243.05805 583.05398,241.83503 580.55107,241.835 C 579.52714,241.83503 578.64544,242.20478 577.90594,242.94425 C 577.22332,243.62689 576.88202,244.48016 576.88202,245.50406 C 576.88202,248.007 578.10503,249.25845 580.55107,249.25844 M 580.55107,240.72576 C 581.63187,240.72578 582.51358,240.38448 583.1962,239.70183 C 583.93569,238.96236 584.30544,238.05221 584.30545,236.97138 C 584.30544,234.52537 583.05398,233.30236 580.55107,233.30232 C 579.52714,233.30236 578.64544,233.67211 577.90594,234.41157 C 577.22332,235.09422 576.88202,235.94749 576.88202,236.97138 C 576.88202,239.47432 578.10503,240.72578 580.55107,240.72576 M 614.68179,249.25844 C 615.76255,249.25845 616.64426,248.91715 617.32692,248.23451 C 618.06638,247.49504 618.43613,246.58488 618.43617,245.50406 C 618.43613,243.05805 617.18467,241.83503 614.68179,241.835 C 613.65783,241.83503 612.77612,242.20478 612.03666,242.94425 C 611.35401,243.62689 611.0127,244.48016 611.01274,245.50406 C 611.0127,248.007 612.23572,249.25845 614.68179,249.25844 M 580.55107,257.79112 C 581.63187,257.79113 582.51358,257.44982 583.1962,256.76719 C 583.93569,256.02771 584.30544,255.11755 584.30545,254.03674 C 584.30544,251.59072 583.05398,250.3677 580.55107,250.36768 C 579.52714,250.3677 578.64544,250.73745 577.90594,251.47693 C 577.22332,252.15956 576.88202,253.01283 576.88202,254.03674 C 576.88202,256.53967 578.10503,257.79113 580.55107,257.79112 M 614.68179,257.79112 C 615.76255,257.79113 616.64426,257.44982 617.32692,256.76719 C 618.06638,256.02771 618.43613,255.11755 618.43617,254.03674 C 618.43613,251.59072 617.18467,250.3677 614.68179,250.36768 C 613.65783,250.3677 612.77612,250.73745 612.03666,251.47693 C 611.35401,252.15956 611.0127,253.01283 611.01274,254.03674 C 611.0127,256.53967 612.23572,257.79113 614.68179,257.79112 M 589.08375,240.72576 C 590.16454,240.72578 591.04625,240.38448 591.72888,239.70183 C 592.46836,238.96236 592.83811,238.05221 592.83813,236.97138 C 592.83811,234.52537 591.58665,233.30236 589.08375,233.30232 C 588.05982,233.30236 587.17811,233.67211 586.43862,234.41157 C 585.75599,235.09422 585.41469,235.94749 585.4147,236.97138 C 585.41469,239.47432 586.6377,240.72578 589.08375,240.72576 M 597.61643,240.72576 C 598.69721,240.72578 599.57892,240.38448 600.26156,239.70183 C 601.00103,238.96236 601.37078,238.05221 601.37081,236.97138 C 601.37078,234.52537 600.11932,233.30236 597.61643,233.30232 C 596.59249,233.30236 595.71078,233.67211 594.9713,234.41157 C 594.28867,235.09422 593.94736,235.94749 593.94738,236.97138 C 593.94736,239.47432 595.17038,240.72578 597.61643,240.72576 M 606.14911,240.72576 C 607.22988,240.72578 608.11159,240.38448 608.79424,239.70183 C 609.5337,238.96236 609.90345,238.05221 609.90349,236.97138 C 609.90345,234.52537 608.652,233.30236 606.14911,233.30232 C 605.12516,233.30236 604.24345,233.67211 603.50398,234.41157 C 602.82134,235.09422 602.48003,235.94749 602.48006,236.97138 C 602.48003,239.47432 603.70305,240.72578 606.14911,240.72576"
         style="font-size:85.32679749px;font-style:normal;font-variant:normal;font-weight:normal;font-stretch:normal;text-align:start;line-height:100%;writing-mode:lr-tb;text-anchor:start;fill:#000000;fill-opacity:1;stroke:none;stroke-width:1px;stroke-linecap:butt;stroke-linejoin:miter;stroke-opacity:1;font-family:Bazaronite" />
      <path
         id="text3563"
         d="M 628.10719,365.21851 C 629.18798,365.21856 630.06969,364.87725 630.75232,364.19459 C 631.4918,363.45514 631.86155,362.54499 631.86157,361.46413 C 631.86155,359.01815 630.61009,357.79513 628.10719,357.79508 C 627.08325,357.79513 626.20154,358.16488 625.46206,358.90432 C 624.77943,359.587 624.43813,360.44026 624.43813,361.46413 C 624.43813,363.9671 625.66114,365.21856 628.10719,365.21851 M 636.63987,365.21851 C 637.72065,365.21856 638.60236,364.87725 639.285,364.19459 C 640.02447,363.45514 640.39422,362.54499 640.39425,361.46413 C 640.39422,359.01815 639.14276,357.79513 636.63987,357.79508 C 635.61592,357.79513 634.73422,358.16488 633.99474,358.90432 C 633.3121,359.587 632.9708,360.44026 632.97081,361.46413 C 632.9708,363.9671 634.19381,365.21856 636.63987,365.21851 M 619.57451,365.21851 C 620.65531,365.21856 621.53702,364.87725 622.21964,364.19459 C 622.95913,363.45514 623.32888,362.54499 623.32889,361.46413 C 623.32888,359.01815 622.07742,357.79513 619.57451,357.79508 C 618.55058,357.79513 617.66887,358.16488 616.92938,358.90432 C 616.24676,359.587 615.90545,360.44026 615.90545,361.46413 C 615.90545,363.9671 617.12847,365.21856 619.57451,365.21851 M 645.17255,365.21851 C 646.25332,365.21856 647.13503,364.87725 647.81768,364.19459 C 648.55714,363.45514 648.92689,362.54499 648.92693,361.46413 C 648.92689,359.01815 647.67543,357.79513 645.17255,357.79508 C 644.1486,357.79513 643.26689,358.16488 642.52742,358.90432 C 641.84477,359.587 641.50347,360.44026 641.50349,361.46413 C 641.50347,363.9671 642.72648,365.21856 645.17255,365.21851 M 636.63987,416.41459 C 637.72065,416.41459 638.60236,416.07328 639.285,415.39066 C 640.02447,414.65117 640.39422,413.74102 640.39425,412.66021 C 640.39422,410.21418 639.14276,408.99116 636.63987,408.99115 C 635.61592,408.99116 634.73422,409.36091 633.99474,410.1004 C 633.3121,410.78302 632.9708,411.63629 632.97081,412.66021 C 632.9708,415.16313 634.19381,416.41459 636.63987,416.41459 M 636.63987,424.94726 C 637.72065,424.94726 638.60236,424.57751 639.285,423.83802 C 640.02447,423.1554 640.39422,422.27369 640.39425,421.19289 C 640.39422,418.74685 639.14276,417.52383 636.63987,417.52383 C 635.61592,417.52383 634.73422,417.86514 633.99474,418.54776 C 633.3121,419.28725 632.9708,420.16896 632.97081,421.19289 C 632.9708,423.6958 634.19381,424.94726 636.63987,424.94726 M 645.17255,382.28387 C 646.25332,382.2839 647.13503,381.94259 647.81768,381.25994 C 648.55714,380.52048 648.92689,379.61033 648.92693,378.52949 C 648.92689,376.08349 647.67543,374.86048 645.17255,374.86043 C 644.1486,374.86048 643.26689,375.23023 642.52742,375.96968 C 641.84477,376.65234 641.50347,377.50561 641.50349,378.52949 C 641.50347,381.03244 642.72648,382.2839 645.17255,382.28387 M 653.70523,373.75119 C 654.78599,373.75123 655.6677,373.40992 656.35036,372.72726 C 657.08981,371.98781 657.45956,371.07766 657.4596,369.99681 C 657.45956,367.55082 656.2081,366.32781 653.70523,366.32776 C 652.68127,366.32781 651.79956,366.69756 651.0601,367.437 C 650.37745,368.11967 650.03614,368.97293 650.03617,369.99681 C 650.03614,372.49977 651.25915,373.75123 653.70523,373.75119 M 645.17255,399.34923 C 646.25332,399.34924 647.13503,399.00794 647.81768,398.3253 C 648.55714,397.58582 648.92689,396.67567 648.92693,395.59485 C 648.92689,393.14884 647.67543,391.92582 645.17255,391.92579 C 644.1486,391.92582 643.26689,392.29557 642.52742,393.03504 C 641.84477,393.71768 641.50347,394.57095 641.50349,395.59485 C 641.50347,398.09779 642.72648,399.34924 645.17255,399.34923 M 645.17255,390.81655 C 646.25332,390.81657 647.13503,390.47527 647.81768,389.79262 C 648.55714,389.05315 648.92689,388.143 648.92693,387.06217 C 648.92689,384.61616 647.67543,383.39315 645.17255,383.39311 C 644.1486,383.39315 643.26689,383.7629 642.52742,384.50236 C 641.84477,385.18501 641.50347,386.03828 641.50349,387.06217 C 641.50347,389.56511 642.72648,390.81657 645.17255,390.81655 M 636.63987,407.88191 C 637.72065,407.88191 638.60236,407.54061 639.285,406.85798 C 640.02447,406.1185 640.39422,405.20834 640.39425,404.12753 C 640.39422,401.68151 639.14276,400.45849 636.63987,400.45847 C 635.61592,400.45849 634.73422,400.82824 633.99474,401.56772 C 633.3121,402.25035 632.9708,403.10362 632.97081,404.12753 C 632.9708,406.63046 634.19381,407.88191 636.63987,407.88191 M 653.70523,365.21851 C 654.78599,365.21856 655.6677,364.87725 656.35036,364.19459 C 657.08981,363.45514 657.45956,362.54499 657.4596,361.46413 C 657.45956,359.01815 656.2081,357.79513 653.70523,357.79508 C 652.68127,357.79513 651.79956,358.16488 651.0601,358.90432 C 650.37745,359.587 650.03614,360.44026 650.03617,361.46413 C 650.03614,363.9671 651.25915,365.21856 653.70523,365.21851"
         style="font-size:85.32679749px;font-style:normal;font-variant:normal;font-weight:normal;font-stretch:normal;text-align:start;line-height:100%;writing-mode:lr-tb;text-anchor:start;fill:#000000;fill-opacity:1;stroke:none;stroke-width:1px;stroke-linecap:butt;stroke-linejoin:miter;stroke-opacity:1;font-family:Bazaronite" />
      <path
         id="text3567"
         d="M 575.57545,477.78635 C 576.65624,477.7864 577.53795,477.44509 578.22058,476.76243 C 578.96006,476.02298 579.32981,475.11283 579.32983,474.03197 C 579.32981,471.58599 578.07835,470.36298 575.57545,470.36292 C 574.55151,470.36298 573.66981,470.73272 572.93032,471.47216 C 572.24769,472.15484 571.90639,473.0081 571.9064,474.03197 C 571.90639,476.53494 573.1294,477.7864 575.57545,477.78635 M 567.04277,528.98243 C 568.12357,528.98243 569.00528,528.64112 569.6879,527.9585 C 570.42739,527.21901 570.79714,526.30886 570.79715,525.22805 C 570.79714,522.78202 569.54568,521.559 567.04277,521.55899 C 566.01884,521.559 565.13713,521.92875 564.39764,522.66824 C 563.71502,523.35086 563.37372,524.20413 563.37372,525.22805 C 563.37372,527.73097 564.59673,528.98243 567.04277,528.98243 M 584.10813,477.78635 C 585.18891,477.7864 586.07062,477.44509 586.75326,476.76243 C 587.49273,476.02298 587.86248,475.11283 587.86251,474.03197 C 587.86248,471.58599 586.61102,470.36298 584.10813,470.36292 C 583.08419,470.36298 582.20248,470.73272 581.463,471.47216 C 580.78036,472.15484 580.43906,473.0081 580.43908,474.03197 C 580.43906,476.53494 581.66207,477.7864 584.10813,477.78635 M 575.57545,537.51511 C 576.65624,537.5151 577.53795,537.14535 578.22058,536.40586 C 578.96006,535.72324 579.32981,534.84153 579.32983,533.76073 C 579.32981,531.31469 578.07835,530.09167 575.57545,530.09167 C 574.55151,530.09167 573.66981,530.43298 572.93032,531.1156 C 572.24769,531.85509 571.90639,532.7368 571.9064,533.76073 C 571.90639,536.26364 573.1294,537.5151 575.57545,537.51511 M 567.04277,494.85171 C 568.12357,494.85174 569.00528,494.51043 569.6879,493.82779 C 570.42739,493.08832 570.79714,492.17817 570.79715,491.09733 C 570.79714,488.65133 569.54568,487.42832 567.04277,487.42828 C 566.01884,487.42832 565.13713,487.79807 564.39764,488.53752 C 563.71502,489.22018 563.37372,490.07345 563.37372,491.09733 C 563.37372,493.60028 564.59673,494.85174 567.04277,494.85171 M 567.04277,486.31903 C 568.12357,486.31907 569.00528,485.97776 569.6879,485.29511 C 570.42739,484.55565 570.79714,483.6455 570.79715,482.56465 C 570.79714,480.11866 569.54568,478.89565 567.04277,478.8956 C 566.01884,478.89565 565.13713,479.2654 564.39764,480.00484 C 563.71502,480.68751 563.37372,481.54077 563.37372,482.56465 C 563.37372,485.06761 564.59673,486.31907 567.04277,486.31903 M 592.64081,477.78635 C 593.72158,477.7864 594.60329,477.44509 595.28594,476.76243 C 596.0254,476.02298 596.39515,475.11283 596.39519,474.03197 C 596.39515,471.58599 595.14369,470.36298 592.64081,470.36292 C 591.61686,470.36298 590.73515,470.73272 589.99568,471.47216 C 589.31304,472.15484 588.97173,473.0081 588.97176,474.03197 C 588.97173,476.53494 590.19475,477.7864 592.64081,477.78635 M 601.17349,528.98243 C 602.25425,528.98243 603.13596,528.64112 603.81862,527.9585 C 604.55808,527.21901 604.92782,526.30886 604.92787,525.22805 C 604.92782,522.78202 603.67637,521.559 601.17349,521.55899 C 600.14953,521.559 599.26782,521.92875 598.52836,522.66824 C 597.84571,523.35086 597.5044,524.20413 597.50444,525.22805 C 597.5044,527.73097 598.72742,528.98243 601.17349,528.98243 M 592.64081,537.51511 C 593.72158,537.5151 594.60329,537.14535 595.28594,536.40586 C 596.0254,535.72324 596.39515,534.84153 596.39519,533.76073 C 596.39515,531.31469 595.14369,530.09167 592.64081,530.09167 C 591.61686,530.09167 590.73515,530.43298 589.99568,531.1156 C 589.31304,531.85509 588.97173,532.7368 588.97176,533.76073 C 588.97173,536.26364 590.19475,537.5151 592.64081,537.51511 M 601.17349,494.85171 C 602.25425,494.85174 603.13596,494.51043 603.81862,493.82779 C 604.55808,493.08832 604.92782,492.17817 604.92787,491.09733 C 604.92782,488.65133 603.67637,487.42832 601.17349,487.42828 C 600.14953,487.42832 599.26782,487.79807 598.52836,488.53752 C 597.84571,489.22018 597.5044,490.07345 597.50444,491.09733 C 597.5044,493.60028 598.72742,494.85174 601.17349,494.85171 M 601.17349,486.31903 C 602.25425,486.31907 603.13596,485.97776 603.81862,485.29511 C 604.55808,484.55565 604.92782,483.6455 604.92787,482.56465 C 604.92782,480.11866 603.67637,478.89565 601.17349,478.8956 C 600.14953,478.89565 599.26782,479.2654 598.52836,480.00484 C 597.84571,480.68751 597.5044,481.54077 597.50444,482.56465 C 597.5044,485.06761 598.72742,486.31907 601.17349,486.31903 M 584.10813,537.51511 C 585.18891,537.5151 586.07062,537.14535 586.75326,536.40586 C 587.49273,535.72324 587.86248,534.84153 587.86251,533.76073 C 587.86248,531.31469 586.61102,530.09167 584.10813,530.09167 C 583.08419,530.09167 582.20248,530.43298 581.463,531.1156 C 580.78036,531.85509 580.43906,532.7368 580.43908,533.76073 C 580.43906,536.26364 581.66207,537.5151 584.10813,537.51511 M 567.04277,511.91707 C 568.12357,511.91708 569.00528,511.57578 569.6879,510.89314 C 570.42739,510.15367 570.79714,509.24351 570.79715,508.16269 C 570.79714,505.71668 569.54568,504.49366 567.04277,504.49363 C 566.01884,504.49366 565.13713,504.86341 564.39764,505.60288 C 563.71502,506.28552 563.37372,507.13879 563.37372,508.16269 C 563.37372,510.66563 564.59673,511.91708 567.04277,511.91707 M 567.04277,503.38439 C 568.12357,503.38441 569.00528,503.04311 569.6879,502.36046 C 570.42739,501.62099 570.79714,500.71084 570.79715,499.63001 C 570.79714,497.18401 569.54568,495.96099 567.04277,495.96096 C 566.01884,495.96099 565.13713,496.33074 564.39764,497.0702 C 563.71502,497.75285 563.37372,498.60612 563.37372,499.63001 C 563.37372,502.13295 564.59673,503.38441 567.04277,503.38439 M 601.17349,511.91707 C 602.25425,511.91708 603.13596,511.57578 603.81862,510.89314 C 604.55808,510.15367 604.92782,509.24351 604.92787,508.16269 C 604.92782,505.71668 603.67637,504.49366 601.17349,504.49363 C 600.14953,504.49366 599.26782,504.86341 598.52836,505.60288 C 597.84571,506.28552 597.5044,507.13879 597.50444,508.16269 C 597.5044,510.66563 598.72742,511.91708 601.17349,511.91707 M 601.17349,503.38439 C 602.25425,503.38441 603.13596,503.04311 603.81862,502.36046 C 604.55808,501.62099 604.92782,500.71084 604.92787,499.63001 C 604.92782,497.18401 603.67637,495.96099 601.17349,495.96096 C 600.14953,495.96099 599.26782,496.33074 598.52836,497.0702 C 597.84571,497.75285 597.5044,498.60612 597.50444,499.63001 C 597.5044,502.13295 598.72742,503.38441 601.17349,503.38439 M 567.04277,520.44975 C 568.12357,520.44976 569.00528,520.10845 569.6879,519.42582 C 570.42739,518.68634 570.79714,517.77619 570.79715,516.69537 C 570.79714,514.24935 569.54568,513.02633 567.04277,513.02631 C 566.01884,513.02633 565.13713,513.39608 564.39764,514.13556 C 563.71502,514.81819 563.37372,515.67146 563.37372,516.69537 C 563.37372,519.1983 564.59673,520.44976 567.04277,520.44975 M 601.17349,520.44975 C 602.25425,520.44976 603.13596,520.10845 603.81862,519.42582 C 604.55808,518.68634 604.92782,517.77619 604.92787,516.69537 C 604.92782,514.24935 603.67637,513.02633 601.17349,513.02631 C 600.14953,513.02633 599.26782,513.39608 598.52836,514.13556 C 597.84571,514.81819 597.5044,515.67146 597.50444,516.69537 C 597.5044,519.1983 598.72742,520.44976 601.17349,520.44975 M 575.57545,503.38439 C 576.65624,503.38441 577.53795,503.04311 578.22058,502.36046 C 578.96006,501.62099 579.32981,500.71084 579.32983,499.63001 C 579.32981,497.18401 578.07835,495.96099 575.57545,495.96096 C 574.55151,495.96099 573.66981,496.33074 572.93032,497.0702 C 572.24769,497.75285 571.90639,498.60612 571.9064,499.63001 C 571.90639,502.13295 573.1294,503.38441 575.57545,503.38439 M 584.10813,503.38439 C 585.18891,503.38441 586.07062,503.04311 586.75326,502.36046 C 587.49273,501.62099 587.86248,500.71084 587.86251,499.63001 C 587.86248,497.18401 586.61102,495.96099 584.10813,495.96096 C 583.08419,495.96099 582.20248,496.33074 581.463,497.0702 C 580.78036,497.75285 580.43906,498.60612 580.43908,499.63001 C 580.43906,502.13295 581.66207,503.38441 584.10813,503.38439 M 592.64081,503.38439 C 593.72158,503.38441 594.60329,503.04311 595.28594,502.36046 C 596.0254,501.62099 596.39515,500.71084 596.39519,499.63001 C 596.39515,497.18401 595.14369,495.96099 592.64081,495.96096 C 591.61686,495.96099 590.73515,496.33074 589.99568,497.0702 C 589.31304,497.75285 588.97173,498.60612 588.97176,499.63001 C 588.97173,502.13295 590.19475,503.38441 592.64081,503.38439"
         style="font-size:85.32679749px;font-style:normal;font-variant:normal;font-weight:normal;font-stretch:normal;text-align:start;line-height:100%;writing-mode:lr-tb;text-anchor:start;fill:#000000;fill-opacity:1;stroke:none;stroke-width:1px;stroke-linecap:butt;stroke-linejoin:miter;stroke-opacity:1;font-family:Bazaronite" />
      <path
         id="text3571"
         d="M 484.02027,563.33817 C 485.10106,563.33822 485.98277,562.99691 486.6654,562.31424 C 487.40489,561.5748 487.77464,560.66465 487.77465,559.58379 C 487.77464,557.13781 486.52318,555.91479 484.02027,555.91473 C 482.99634,555.91479 482.11463,556.28454 481.37514,557.02398 C 480.69252,557.70666 480.35121,558.55992 480.35122,559.58379 C 480.35121,562.08676 481.57423,563.33822 484.02027,563.33817 M 475.48759,614.53424 C 476.56839,614.53425 477.4501,614.19294 478.13272,613.51032 C 478.87221,612.77083 479.24196,611.86068 479.24197,610.77987 C 479.24196,608.33384 477.99051,607.11082 475.48759,607.11081 C 474.46367,607.11082 473.58196,607.48057 472.84246,608.22006 C 472.15985,608.90268 471.81854,609.75595 471.81854,610.77987 C 471.81854,613.28279 473.04156,614.53425 475.48759,614.53424 M 492.55295,563.33817 C 493.63374,563.33822 494.51545,562.99691 495.19808,562.31424 C 495.93756,561.5748 496.30731,560.66465 496.30733,559.58379 C 496.30731,557.13781 495.05585,555.91479 492.55295,555.91473 C 491.52901,555.91479 490.6473,556.28454 489.90782,557.02398 C 489.22519,557.70666 488.88388,558.55992 488.8839,559.58379 C 488.88388,562.08676 490.1069,563.33822 492.55295,563.33817 M 484.02027,623.06692 C 485.10106,623.06692 485.98277,622.69717 486.6654,621.95768 C 487.40489,621.27506 487.77464,620.39335 487.77465,619.31255 C 487.77464,616.86651 486.52318,615.64349 484.02027,615.64349 C 482.99634,615.64349 482.11463,615.9848 481.37514,616.66741 C 480.69252,617.40691 480.35121,618.28862 480.35122,619.31255 C 480.35121,621.81546 481.57423,623.06692 484.02027,623.06692 M 475.48759,580.40353 C 476.56839,580.40356 477.4501,580.06225 478.13272,579.3796 C 478.87221,578.64014 479.24196,577.72999 479.24197,576.64915 C 479.24196,574.20315 477.99051,572.98014 475.48759,572.98009 C 474.46367,572.98014 473.58196,573.34989 472.84246,574.08934 C 472.15985,574.772 471.81854,575.62526 471.81854,576.64915 C 471.81854,579.1521 473.04156,580.40356 475.48759,580.40353 M 475.48759,571.87085 C 476.56839,571.87089 477.4501,571.52958 478.13272,570.84692 C 478.87221,570.10747 479.24196,569.19732 479.24197,568.11647 C 479.24196,565.67048 477.99051,564.44747 475.48759,564.44741 C 474.46367,564.44747 473.58196,564.81721 472.84246,565.55666 C 472.15985,566.23933 471.81854,567.09259 471.81854,568.11647 C 471.81854,570.61943 473.04156,571.87089 475.48759,571.87085 M 501.08563,563.33817 C 502.16641,563.33822 503.04812,562.99691 503.73076,562.31424 C 504.47023,561.5748 504.83998,560.66465 504.84001,559.58379 C 504.83998,557.13781 503.58852,555.91479 501.08563,555.91473 C 500.06168,555.91479 499.17997,556.28454 498.4405,557.02398 C 497.75786,557.70666 497.41655,558.55992 497.41658,559.58379 C 497.41655,562.08676 498.63957,563.33822 501.08563,563.33817 M 509.61831,614.53424 C 510.69908,614.53425 511.58079,614.19294 512.26344,613.51032 C 513.0029,612.77083 513.37265,611.86068 513.37269,610.77987 C 513.37265,608.33384 512.12119,607.11082 509.61831,607.11081 C 508.59435,607.11082 507.71264,607.48057 506.97318,608.22006 C 506.29053,608.90268 505.94922,609.75595 505.94926,610.77987 C 505.94922,613.28279 507.17224,614.53425 509.61831,614.53424 M 501.08563,623.06692 C 502.16641,623.06692 503.04812,622.69717 503.73076,621.95768 C 504.47023,621.27506 504.83998,620.39335 504.84001,619.31255 C 504.83998,616.86651 503.58852,615.64349 501.08563,615.64349 C 500.06168,615.64349 499.17997,615.9848 498.4405,616.66741 C 497.75786,617.40691 497.41655,618.28862 497.41658,619.31255 C 497.41655,621.81546 498.63957,623.06692 501.08563,623.06692 M 509.61831,580.40353 C 510.69908,580.40356 511.58079,580.06225 512.26344,579.3796 C 513.0029,578.64014 513.37265,577.72999 513.37269,576.64915 C 513.37265,574.20315 512.12119,572.98014 509.61831,572.98009 C 508.59435,572.98014 507.71264,573.34989 506.97318,574.08934 C 506.29053,574.772 505.94922,575.62526 505.94926,576.64915 C 505.94922,579.1521 507.17224,580.40356 509.61831,580.40353 M 509.61831,571.87085 C 510.69908,571.87089 511.58079,571.52958 512.26344,570.84692 C 513.0029,570.10747 513.37265,569.19732 513.37269,568.11647 C 513.37265,565.67048 512.12119,564.44747 509.61831,564.44741 C 508.59435,564.44747 507.71264,564.81721 506.97318,565.55666 C 506.29053,566.23933 505.94922,567.09259 505.94926,568.11647 C 505.94922,570.61943 507.17224,571.87089 509.61831,571.87085 M 492.55295,623.06692 C 493.63374,623.06692 494.51545,622.69717 495.19808,621.95768 C 495.93756,621.27506 496.30731,620.39335 496.30733,619.31255 C 496.30731,616.86651 495.05585,615.64349 492.55295,615.64349 C 491.52901,615.64349 490.6473,615.9848 489.90782,616.66741 C 489.22519,617.40691 488.88388,618.28862 488.8839,619.31255 C 488.88388,621.81546 490.1069,623.06692 492.55295,623.06692 M 509.61831,597.46889 C 510.69908,597.4689 511.58079,597.1276 512.26344,596.44496 C 513.0029,595.70548 513.37265,594.79533 513.37269,593.71451 C 513.37265,591.2685 512.12119,590.04548 509.61831,590.04545 C 508.59435,590.04548 507.71264,590.41523 506.97318,591.1547 C 506.29053,591.83734 505.94922,592.69061 505.94926,593.71451 C 505.94922,596.21744 507.17224,597.4689 509.61831,597.46889 M 509.61831,588.93621 C 510.69908,588.93623 511.58079,588.59493 512.26344,587.91228 C 513.0029,587.17281 513.37265,586.26266 513.37269,585.18183 C 513.37265,582.73582 512.12119,581.51281 509.61831,581.51277 C 508.59435,581.51281 507.71264,581.88256 506.97318,582.62202 C 506.29053,583.30467 505.94922,584.15794 505.94926,585.18183 C 505.94922,587.68477 507.17224,588.93623 509.61831,588.93621 M 509.61831,606.00156 C 510.69908,606.00157 511.58079,605.66027 512.26344,604.97764 C 513.0029,604.23816 513.37265,603.328 513.37269,602.24719 C 513.37265,599.80117 512.12119,598.57815 509.61831,598.57813 C 508.59435,598.57815 507.71264,598.9479 506.97318,599.68738 C 506.29053,600.37001 505.94922,601.22328 505.94926,602.24719 C 505.94922,604.75012 507.17224,606.00157 509.61831,606.00156 M 484.02027,588.93621 C 485.10106,588.93623 485.98277,588.59493 486.6654,587.91228 C 487.40489,587.17281 487.77464,586.26266 487.77465,585.18183 C 487.77464,582.73582 486.52318,581.51281 484.02027,581.51277 C 482.99634,581.51281 482.11463,581.88256 481.37514,582.62202 C 480.69252,583.30467 480.35121,584.15794 480.35122,585.18183 C 480.35121,587.68477 481.57423,588.93623 484.02027,588.93621 M 492.55295,588.93621 C 493.63374,588.93623 494.51545,588.59493 495.19808,587.91228 C 495.93756,587.17281 496.30731,586.26266 496.30733,585.18183 C 496.30731,582.73582 495.05585,581.51281 492.55295,581.51277 C 491.52901,581.51281 490.6473,581.88256 489.90782,582.62202 C 489.22519,583.30467 488.88388,584.15794 488.8839,585.18183 C 488.88388,587.68477 490.1069,588.93623 492.55295,588.93621 M 501.08563,588.93621 C 502.16641,588.93623 503.04812,588.59493 503.73076,587.91228 C 504.47023,587.17281 504.83998,586.26266 504.84001,585.18183 C 504.83998,582.73582 503.58852,581.51281 501.08563,581.51277 C 500.06168,581.51281 499.17997,581.88256 498.4405,582.62202 C 497.75786,583.30467 497.41655,584.15794 497.41658,585.18183 C 497.41655,587.68477 498.63957,588.93623 501.08563,588.93621"
         style="font-size:85.32679749px;font-style:normal;font-variant:normal;font-weight:normal;font-stretch:normal;text-align:start;line-height:100%;writing-mode:lr-tb;text-anchor:start;fill:#000000;fill-opacity:1;stroke:none;stroke-width:1px;stroke-linecap:butt;stroke-linejoin:miter;stroke-opacity:1;font-family:Bazaronite" />
      <g
         transform="matrix(3.5552832,0,0,3.5552832,-689.13017,-578.07426)"
         id="g3957">
        <path
           style="fill:none;fill-rule:evenodd;stroke:#000000;stroke-width:0.69215941px;stroke-linecap:butt;stroke-linejoin:miter;stroke-opacity:1"
           d="M 321.79567,171.01862 L 319.11792,183.36904"
           id="path3903" />
        <path
           style="fill:none;fill-rule:evenodd;stroke:#000000;stroke-width:0.69215941px;stroke-linecap:butt;stroke-linejoin:miter;stroke-opacity:1"
           d="M 271.5434,171.30841 L 274.11769,183.68081"
           id="path3905" />
        <path
           style="fill:none;fill-rule:evenodd;stroke:#000000;stroke-width:0.69215941px;stroke-linecap:butt;stroke-linejoin:miter;stroke-opacity:1"
           d="M 226.68714,197.8028 L 235.60981,206.75206"
           id="path3907" />
        <path
           style="fill:none;fill-rule:evenodd;stroke:#000000;stroke-width:0.69215941px;stroke-linecap:butt;stroke-linejoin:miter;stroke-opacity:1"
           d="M 203.21092,237.54451 L 215.19707,241.54891"
           id="path3909" />
        <path
           style="fill:none;fill-rule:evenodd;stroke:#000000;stroke-width:0.69215941px;stroke-linecap:butt;stroke-linejoin:miter;stroke-opacity:1"
           d="M 212.60236,280.02041 L 200.06625,281.61711"
           id="path3911" />
        <path
           style="fill:none;fill-rule:evenodd;stroke:#000000;stroke-width:0.77118343px;stroke-linecap:butt;stroke-linejoin:miter;stroke-opacity:1"
           d="M 370.02662,198.1558 L 360.49263,208.4781"
           id="path3913" />
        <path
           style="fill:none;fill-rule:evenodd;stroke:#000000;stroke-width:0.70662123px;stroke-linecap:butt;stroke-linejoin:miter;stroke-opacity:1"
           d="M 395.51462,248.07184 L 381.26313,250.81746"
           id="path3915" />
        <path
           style="fill:none;fill-rule:evenodd;stroke:#000000;stroke-width:0.69975209px;stroke-linecap:butt;stroke-linejoin:miter;stroke-opacity:1"
           d="M 392.05615,297.85124 L 378.54132,292.54101"
           id="path3917" />
        <path
           style="fill:none;fill-rule:evenodd;stroke:#000000;stroke-width:0.69322479px;stroke-linecap:butt;stroke-linejoin:miter;stroke-opacity:1"
           d="M 357.66015,326.59187 L 366.90368,338.52509"
           id="path3919" />
        <path
           style="fill:none;fill-rule:evenodd;stroke:#000000;stroke-width:0.32154202px;stroke-linecap:butt;stroke-linejoin:miter;stroke-opacity:1"
           d="M 364.42007,319.24013 L 374.36289,327.39478"
           id="path3921" />
        <path
           style="fill:none;fill-rule:evenodd;stroke:#000000;stroke-width:0.33857405px;stroke-linecap:butt;stroke-linejoin:miter;stroke-opacity:1"
           d="M 349.77188,333.61957 L 356.86543,344.21554"
           id="path3923" />
        <path
           style="fill:none;fill-rule:evenodd;stroke:#000000;stroke-width:0.349565px;stroke-linecap:butt;stroke-linejoin:miter;stroke-opacity:1"
           d="M 375.11308,301.6003 L 386.64459,307.21621"
           id="path3925" />
        <path
           style="fill:none;fill-rule:evenodd;stroke:#000000;stroke-width:0.33009484px;stroke-linecap:butt;stroke-linejoin:miter;stroke-opacity:1"
           d="M 380.95626,283.48172 L 393.75421,285.81452"
           id="path3927" />
        <path
           style="fill:none;fill-rule:evenodd;stroke:#000000;stroke-width:0.32982507px;stroke-linecap:butt;stroke-linejoin:miter;stroke-opacity:1"
           d="M 395.54726,261.31175 L 382.66142,262.03511"
           id="path3929" />
        <path
           style="fill:none;fill-rule:evenodd;stroke:#000000;stroke-width:0.32031202px;stroke-linecap:butt;stroke-linejoin:miter;stroke-opacity:1"
           d="M 389.89955,233.56242 L 378.28724,238.72955"
           id="path3931" />
        <path
           style="fill:none;fill-rule:evenodd;stroke:#000000;stroke-width:0.31231022px;stroke-linecap:butt;stroke-linejoin:miter;stroke-opacity:1"
           d="M 376.53576,208.70355 L 367.06905,216.78813"
           id="path3933" />
        <path
           style="fill:none;fill-rule:evenodd;stroke:#000000;stroke-width:0.29992208px;stroke-linecap:butt;stroke-linejoin:miter;stroke-opacity:1"
           d="M 357.2221,189.30437 L 350.45521,199.21978"
           id="path3935" />
        <path
           style="fill:none;fill-rule:evenodd;stroke:#000000;stroke-width:0.29199046px;stroke-linecap:butt;stroke-linejoin:miter;stroke-opacity:1"
           d="M 332.47875,175.60603 L 328.77644,186.63432"
           id="path3937" />
        <path
           style="fill:none;fill-rule:evenodd;stroke:#000000;stroke-width:0.26268592px;stroke-linecap:butt;stroke-linejoin:miter;stroke-opacity:1"
           d="M 309.02941,170.16867 L 308.16731,181.29344"
           id="path3939" />
        <path
           style="fill:none;fill-rule:evenodd;stroke:#000000;stroke-width:0.26582769px;stroke-linecap:butt;stroke-linejoin:miter;stroke-opacity:1"
           d="M 284.14259,170.65313 L 285.21382,181.4708"
           id="path3941" />
        <path
           style="fill:none;fill-rule:evenodd;stroke:#000000;stroke-width:0.3014662px;stroke-linecap:butt;stroke-linejoin:miter;stroke-opacity:1"
           d="M 260.56434,177.3393 L 263.88269,187.26471"
           id="path3943" />
        <path
           style="fill:none;fill-rule:evenodd;stroke:#000000;stroke-width:0.29858646px;stroke-linecap:butt;stroke-linejoin:miter;stroke-opacity:1"
           d="M 237.50299,191.26105 L 243.35832,199.53222"
           id="path3945" />
        <path
           style="fill:none;fill-rule:evenodd;stroke:#000000;stroke-width:0.34092858px;stroke-linecap:butt;stroke-linejoin:miter;stroke-opacity:1"
           d="M 221.2777,208.14925 L 228.76156,214.69514"
           id="path3947" />
        <path
           style="fill:none;fill-rule:evenodd;stroke:#000000;stroke-width:0.31546324px;stroke-linecap:butt;stroke-linejoin:miter;stroke-opacity:1"
           d="M 209.51344,228.34966 L 218.30752,232.7859"
           id="path3949" />
        <path
           style="fill:none;fill-rule:evenodd;stroke:#000000;stroke-width:0.35471815px;stroke-linecap:butt;stroke-linejoin:miter;stroke-opacity:1"
           d="M 203.25491,249.13633 L 212.93687,250.66856"
           id="path3951" />
        <path
           style="fill:none;fill-rule:evenodd;stroke:#000000;stroke-width:0.30769685px;stroke-linecap:butt;stroke-linejoin:miter;stroke-opacity:1"
           d="M 201.59814,270.94886 L 211.66273,270.26719"
           id="path3953" />
        <path
           style="fill:none;fill-rule:evenodd;stroke:#000000;stroke-width:0.31345025px;stroke-linecap:butt;stroke-linejoin:miter;stroke-opacity:1"
           d="M 205.142,292.80987 L 214.83164,289.43919"
           id="path3955" />
      </g>
      <g
         transform="matrix(3.5552832,0,0,3.5552832,-491.37585,-11.432058)"
         id="g4825">
        <path
           sodipodi:type="arc"
           style="opacity:0.8;fill:#000000;fill-opacity:1;stroke:none;stroke-width:32.52899933;stroke-miterlimit:4;stroke-dasharray:none;stroke-opacity:1;filter:url(#filter4631)"
           id="path3284"
           sodipodi:cx="252.20338"
           sodipodi:cy="242.70924"
           sodipodi:rx="77.062149"
           sodipodi:ry="55.044392"
           d="m 253.92309,297.73993 c -42.54965,0.6784 -77.81289,-23.40972 -78.76266,-53.80232 -0.94977,-30.39261 32.77359,-55.58064 75.32325,-56.25905 42.54965,-0.67841 77.81289,23.40971 78.76266,53.80232 0.9362,29.95843 -31.8497,54.94785 -73.76395,56.2229"
           sodipodi:start="1.5484786"
           sodipodi:end="7.8114187"
           sodipodi:open="true"
           transform="matrix(4.5457748e-2,0,0,6.3640696e-2,263.55393,93.29385)" />
        <path
           sodipodi:type="arc"
           style="opacity:0.8;fill:#000000;fill-opacity:1;stroke:none;stroke-width:32.52899933;stroke-miterlimit:4;stroke-dasharray:none;stroke-opacity:1;filter:url(#filter4627)"
           id="path3286"
           sodipodi:cx="252.20338"
           sodipodi:cy="242.70924"
           sodipodi:rx="77.062149"
           sodipodi:ry="55.044392"
           d="m 253.92309,297.73993 c -42.54965,0.6784 -77.81289,-23.40972 -78.76266,-53.80232 -0.94977,-30.39261 32.77359,-55.58064 75.32325,-56.25905 42.54965,-0.67841 77.81289,23.40971 78.76266,53.80232 0.9362,29.95843 -31.8497,54.94785 -73.76395,56.2229"
           sodipodi:start="1.5484786"
           sodipodi:end="7.8114187"
           sodipodi:open="true"
           transform="matrix(4.5457748e-2,0,0,6.3640696e-2,192.49666,93.29385)" />
        <path
           sodipodi:type="arc"
           style="opacity:1;fill:#000000;fill-opacity:1;stroke:none;stroke-width:32.52899933;stroke-miterlimit:4;stroke-dasharray:none;stroke-opacity:1;filter:url(#filter4821)"
           id="path4635"
           sodipodi:cx="252.20338"
           sodipodi:cy="242.70924"
           sodipodi:rx="77.062149"
           sodipodi:ry="55.044392"
           d="m 253.92309,297.73993 c -42.54965,0.6784 -77.81289,-23.40972 -78.76266,-53.80232 -0.94977,-30.39261 32.77359,-55.58064 75.32325,-56.25905 42.54965,-0.67841 77.81289,23.40971 78.76266,53.80232 0.9362,29.95843 -31.8497,54.94785 -73.76395,56.2229"
           sodipodi:start="1.5484786"
           sodipodi:end="7.8114187"
           sodipodi:open="true"
           transform="matrix(2.8107122e-2,0,0,3.9349877e-2,182.54974,147.3639)" />
      </g>
    </g>
    <g
       id="g3318"
       transform="matrix(-2.1126893,2.8594731,-2.8594731,-2.1126893,2166.7797,920.73027)"
       inkscape:transform-center-y="52.064159"
       inkscape:transform-center-x="-78.025057"
       inkscape:export-filename="D:\ed\projects\optimizer2010\projects\optimizer\res\16.png"
       inkscape:export-xdpi="1.9456942"
       inkscape:export-ydpi="1.9456942">
      <path
         id="path3308"
         d="m 173.13963,523.93604 c 0,-104.08394 0,-104.08394 0,-104.08394"
         style="fill:none;stroke:#ff0101;stroke-width:6;stroke-linecap:square;stroke-linejoin:miter;stroke-miterlimit:4;stroke-opacity:1;stroke-dasharray:none"
         inkscape:connector-curvature="0" />
      <path
         inkscape:transform-center-y="-27.929369"
         inkscape:transform-center-x="3.035855"
         id="path3310"
         d="M 177.80711,523.89748 C 173.95456,419.88486 173.95456,419.88486 173.95456,419.88486"
         style="fill:none;stroke:#ff0101;stroke-width:6;stroke-linecap:square;stroke-linejoin:miter;stroke-miterlimit:4;stroke-opacity:1;stroke-dasharray:none"
         inkscape:connector-curvature="0" />
    </g>
  </g>
</svg>
